<svg class="main-svg" xmlns="http://www.w3.org/2000/svg" xmlns:xlink="http://www.w3.org/1999/xlink" width="700" height="450" style="" viewBox="0 0 700 450"><rect x="0" y="0" width="700" height="450" style="fill: rgb(255, 255, 255); fill-opacity: 1;"/><defs id="defs-f8d913"><g class="clips"><clipPath id="clipf8d913xyplot" class="plotclip"><rect width="517" height="330"/></clipPath><clipPath class="axesclip" id="clipf8d913x"><rect x="60" y="0" width="517" height="450"/></clipPath><clipPath class="axesclip" id="clipf8d913y"><rect x="0" y="60" width="700" height="330"/></clipPath><clipPath class="axesclip" id="clipf8d913xy"><rect x="60" y="60" width="517" height="330"/></clipPath></g><g class="gradients"/></defs><g class="bglayer"/><g class="layer-below"><g class="imagelayer"/><g class="shapelayer"/></g><g class="cartesianlayer"><g class="subplot xy"><g class="layer-subplot"><g class="shapelayer"/><g class="imagelayer"/></g><g class="gridlayer"><g class="x"><path class="xgrid crisp" transform="translate(189.9,0)" d="M0,60v330" style="stroke: rgb(238, 238, 238); stroke-opacity: 1; stroke-width: 1px;"/><path class="xgrid crisp" transform="translate(319.8,0)" d="M0,60v330" style="stroke: rgb(238, 238, 238); stroke-opacity: 1; stroke-width: 1px;"/><path class="xgrid crisp" transform="translate(449.7,0)" d="M0,60v330" style="stroke: rgb(238, 238, 238); stroke-opacity: 1; stroke-width: 1px;"/></g><g class="y"><path class="ygrid crisp" transform="translate(0,303.87)" d="M60,0h517" style="stroke: rgb(238, 238, 238); stroke-opacity: 1; stroke-width: 1px;"/><path class="ygrid crisp" transform="translate(0,234.11)" d="M60,0h517" style="stroke: rgb(238, 238, 238); stroke-opacity: 1; stroke-width: 1px;"/><path class="ygrid crisp" transform="translate(0,164.35)" d="M60,0h517" style="stroke: rgb(238, 238, 238); stroke-opacity: 1; stroke-width: 1px;"/><path class="ygrid crisp" transform="translate(0,94.59)" d="M60,0h517" style="stroke: rgb(238, 238, 238); stroke-opacity: 1; stroke-width: 1px;"/></g></g><g class="zerolinelayer"><path class="xzl zl crisp" transform="translate(60,0)" d="M0,60v330" style="stroke: rgb(68, 68, 68); stroke-opacity: 1; stroke-width: 1px;"/><path class="yzl zl crisp" transform="translate(0,373.63)" d="M60,0h517" style="stroke: rgb(68, 68, 68); stroke-opacity: 1; stroke-width: 1px;"/></g><path class="xlines-below"/><path class="ylines-below"/><g class="overlines-below"/><g class="xaxislayer-below"/><g class="yaxislayer-below"/><g class="overaxes-below"/><g class="plot" transform="translate(60, 60)" clip-path="url('#clipf8d913xyplot')"><g class="scatterlayer mlayer"><g class="trace scatter trace668336" style="stroke-miterlimit: 2; opacity: 1;"><g class="fills"/><g class="errorbars"/><g class="lines"><path class="js-line" d="M0,16.5L2.6,141.38L5.2,183.21L10.39,229.34L12.99,243.91L18.19,259.65L20.78,263.5L28.58,284.66L31.18,284.57L33.77,284.99L36.37,287.54L38.97,290.65L41.57,289.4L44.17,292.59L46.76,291.03L49.36,290.39L51.96,297.18L54.56,299.92L57.16,299.75L59.75,301.39L62.35,298.08L64.95,300.42L67.55,300.64L70.15,300.97L72.74,298.78L75.34,301.19L77.94,305.58L80.54,306.66L83.14,305.38L88.33,306.56L90.93,305.21L93.53,302.03L96.13,303.56L98.72,306.19L101.32,304.94L103.92,305.43L106.52,309L109.12,309.79L111.71,307.71L114.31,308.86L116.91,309.08L119.51,309.73L122.11,308.02L127.3,309.06L129.9,308.08L132.5,310.04L135.1,310.22L140.29,310.7L142.89,309.72L145.49,310.22L148.09,308.4L150.68,310.01L153.28,310L155.88,311.08L158.48,311.27L163.67,311.16L166.27,310.89L174.07,311.8L176.66,312.55L184.46,311.93L187.06,311.73L192.25,312.39L194.85,311.6L200.05,312.25L202.64,311.88L207.84,312.01L210.44,310.99L213.04,312.4L215.63,312.25L244.21,312.82L246.81,312.46L252.01,312.82L254.6,312.8L290.97,313.19L293.57,312.67L298.77,313.11L301.37,313.16L340.34,312.87L342.93,313.27L355.92,313.36L358.52,313.39L394.89,313.4L397.49,313.2L405.29,313.34L407.88,313.29L446.85,313.39L449.45,313.41L467.64,313.38L470.24,312.2L472.83,313.34L475.43,313.26L485.82,313.41L488.42,313.49L517,313.34" style="vector-effect: non-scaling-stroke; fill: none; stroke: rgb(31, 119, 180); stroke-opacity: 1; stroke-width: 2px; opacity: 1;"/></g><g class="points"/><g class="text"/></g><g class="trace scatter tracec39369" style="stroke-miterlimit: 2; opacity: 1;"><g class="fills"/><g class="errorbars"/><g class="lines"><path class="js-line" d="M0,139.93L2.6,194.01L5.2,213.57L7.79,236.11L10.39,244.19L12.99,253.1L15.59,238.92L18.19,256.06L20.78,259.03L23.38,259.31L25.98,271.93L28.58,272.96L31.18,264L36.37,274.23L38.97,264.61L41.57,268.65L44.17,271.2L46.76,272.34L49.36,281.06L51.96,281.23L54.56,282.41L59.75,283.46L62.35,273L64.95,281.17L67.55,283.73L72.74,272.31L75.34,280.75L77.94,279.2L80.54,280.81L83.14,277.38L85.73,279.06L88.33,276.04L90.93,279.21L93.53,274.27L96.13,246.57L98.72,283.85L101.32,268.02L103.92,282.77L106.52,283.41L109.12,282.82L111.71,278.93L114.31,274.44L116.91,278.41L119.51,280.49L122.11,281.58L124.7,279.42L127.3,282.45L129.9,281.89L132.5,277.66L135.1,281.43L137.69,277.36L140.29,280.1L142.89,280.92L145.49,275.63L148.09,276.38L150.68,278.46L153.28,276.17L155.88,276.6L158.48,275.58L161.08,276.72L163.67,277.03L166.27,276.91L168.87,277.95L171.47,274.74L174.07,276.81L176.66,276.95L179.26,275.57L181.86,277.03L184.46,275.32L187.06,277.78L189.65,276.77L192.25,275.27L194.85,275.69L197.45,274.63L200.05,275.34L202.64,274.76L205.24,276.52L207.84,276.1L210.44,273.29L213.04,275.45L215.63,276.6L218.23,275.34L220.83,277.33L223.43,276.41L226.03,276.31L228.62,276.94L231.22,275.69L236.42,274.87L239.02,276.34L244.21,275.95L246.81,274.27L249.41,273.79L252.01,274.31L254.6,273.89L257.2,274.69L262.4,273.53L264.99,271.1L267.59,273.19L270.19,273.46L272.79,273.3L275.39,271.65L285.78,273.37L288.38,272.52L290.97,273.63L293.57,272.37L296.17,271.41L298.77,271.69L306.56,272.65L309.16,272.28L314.36,272.38L316.95,273.24L324.75,271.57L327.35,272.46L335.14,273.23L337.74,272.62L340.34,271.1L342.93,272.73L350.73,271.65L353.33,271.27L358.52,272.88L361.12,271.58L366.32,271.85L368.91,271.74L371.51,271.39L374.11,271.82L389.7,271.11L392.3,270.87L397.49,271.11L400.09,271.03L402.69,271.27L405.29,270.09L410.48,270.88L413.08,270.77L420.87,270.83L423.47,270.11L428.67,269.49L431.27,270.53L436.46,270.73L439.06,269.41L444.26,271.31L446.85,271.31L449.45,270.56L452.05,271.74L457.25,270.42L459.84,271.05L465.04,270.99L467.64,270.73L470.24,271.08L472.83,270.28L480.63,270.4L483.23,269.73L488.42,270L491.02,269.35L493.62,269.11L496.22,270.26L498.81,268.93L501.41,269.59L504.01,269.31L506.61,270.04L509.21,270.29L511.8,269.7L517,269.83" style="vector-effect: non-scaling-stroke; fill: none; stroke: rgb(255, 127, 14); stroke-opacity: 1; stroke-width: 2px; opacity: 1;"/></g><g class="points"/><g class="text"/></g><g class="trace scatter tracea62400" style="stroke-miterlimit: 2; opacity: 1;"><g class="fills"/><g class="errorbars"/><g class="lines"><path class="js-line" d="M0,237.35L2.6,214.06L5.2,208.73L7.79,200.94L10.39,197.42L12.99,192.41L15.59,197.57L18.19,192.42L20.78,190.47L23.38,190.81L25.98,186.12L28.58,185.18L31.18,187.47L36.37,184.36L38.97,186.02L41.57,186.1L44.17,184.56L46.76,185.45L49.36,183.08L54.56,181.38L57.16,181.6L59.75,181.42L62.35,184.24L67.55,181.09L70.15,182.27L72.74,183.75L75.34,181.19L80.54,180.87L83.14,181.13L85.73,180.63L88.33,181.78L90.93,180.51L93.53,182.28L96.13,184.67L98.72,180.33L101.32,182.64L103.92,179.95L111.71,180.71L114.31,181.88L119.51,180.33L122.11,179.86L127.3,179.79L129.9,179.81L132.5,180.66L135.1,179.6L137.69,180.47L140.29,179.79L142.89,179.51L145.49,180.73L148.09,180.78L150.68,179.86L163.67,179.7L166.27,179.56L176.66,179.51L179.26,179.86L181.86,179.39L184.46,179.74L187.06,179.23L189.65,179.62L207.84,179.36L210.44,179.73L226.03,179.22L228.62,179.11L236.42,179.46L239.02,179.04L252.01,179.4L254.6,179.38L288.38,179.24L290.97,178.97L298.77,179.21L301.37,179.33L355.92,179.1L358.52,178.89L366.32,179.18L368.91,179.17L426.07,179.32L428.67,179.41L452.05,179.15L454.65,179.08L517,179.15" style="vector-effect: non-scaling-stroke; fill: none; stroke: rgb(44, 160, 44); stroke-opacity: 1; stroke-width: 2px; opacity: 1;"/></g><g class="points"/><g class="text"/></g></g></g><g class="overplot"/><path class="xlines-above crisp" d="M0,0" style="fill: none;"/><path class="ylines-above crisp" d="M0,0" style="fill: none;"/><g class="overlines-above"/><g class="xaxislayer-above"><g class="xtick"><text text-anchor="middle" x="0" y="403" transform="translate(60,0)" style="font-family: 'Open Sans', verdana, arial, sans-serif; font-size: 12px; fill: rgb(68, 68, 68); fill-opacity: 1; white-space: pre;">0</text></g><g class="xtick"><text text-anchor="middle" x="0" y="403" transform="translate(189.9,0)" style="font-family: 'Open Sans', verdana, arial, sans-serif; font-size: 12px; fill: rgb(68, 68, 68); fill-opacity: 1; white-space: pre;">50</text></g><g class="xtick"><text text-anchor="middle" x="0" y="403" transform="translate(319.8,0)" style="font-family: 'Open Sans', verdana, arial, sans-serif; font-size: 12px; fill: rgb(68, 68, 68); fill-opacity: 1; white-space: pre;">100</text></g><g class="xtick"><text text-anchor="middle" x="0" y="403" transform="translate(449.7,0)" style="font-family: 'Open Sans', verdana, arial, sans-serif; font-size: 12px; fill: rgb(68, 68, 68); fill-opacity: 1; white-space: pre;">150</text></g></g><g class="yaxislayer-above"><g class="ytick"><text text-anchor="end" x="59" y="4.199999999999999" transform="translate(0,373.63)" style="font-family: 'Open Sans', verdana, arial, sans-serif; font-size: 12px; fill: rgb(68, 68, 68); fill-opacity: 1; white-space: pre;">0</text></g><g class="ytick"><text text-anchor="end" x="59" y="4.199999999999999" transform="translate(0,303.87)" style="font-family: 'Open Sans', verdana, arial, sans-serif; font-size: 12px; fill: rgb(68, 68, 68); fill-opacity: 1; white-space: pre;">0.5</text></g><g class="ytick"><text text-anchor="end" x="59" y="4.199999999999999" transform="translate(0,234.11)" style="font-family: 'Open Sans', verdana, arial, sans-serif; font-size: 12px; fill: rgb(68, 68, 68); fill-opacity: 1; white-space: pre;">1</text></g><g class="ytick"><text text-anchor="end" x="59" y="4.199999999999999" transform="translate(0,164.35)" style="font-family: 'Open Sans', verdana, arial, sans-serif; font-size: 12px; fill: rgb(68, 68, 68); fill-opacity: 1; white-space: pre;">1.5</text></g><g class="ytick"><text text-anchor="end" x="59" y="4.199999999999999" transform="translate(0,94.59)" style="font-family: 'Open Sans', verdana, arial, sans-serif; font-size: 12px; fill: rgb(68, 68, 68); fill-opacity: 1; white-space: pre;">2</text></g></g><g class="overaxes-above"/></g></g><g class="polarlayer"/><g class="ternarylayer"/><g class="geolayer"/><g class="funnelarealayer"/><g class="pielayer"/><g class="treemaplayer"/><g class="sunburstlayer"/><g class="glimages"/><defs id="topdefs-f8d913"><g class="clips"/><clipPath id="legendf8d913"><rect width="101" height="67" x="0" y="0"/></clipPath></defs><g class="layer-above"><g class="imagelayer"/><g class="shapelayer"/></g><g class="infolayer"><g class="legend" pointer-events="all" transform="translate(587.34, 60)"><rect class="bg" shape-rendering="crispEdges" width="101" height="67" x="0" y="0" style="stroke: rgb(68, 68, 68); stroke-opacity: 1; fill: rgb(255, 255, 255); fill-opacity: 1; stroke-width: 0px;"/><g class="scrollbox" transform="translate(0, 0)" clip-path="url('#legendf8d913')"><g class="groups"><g class="traces" transform="translate(0, 14.5)" style="opacity: 1;"><text class="legendtext" text-anchor="start" x="40" y="4.680000000000001" style="font-family: 'Open Sans', verdana, arial, sans-serif; font-size: 12px; fill: rgb(68, 68, 68); fill-opacity: 1; white-space: pre;">train loss</text><g class="layers" style="opacity: 1;"><g class="legendfill"/><g class="legendlines"><path class="js-line" d="M5,0h30" style="fill: none; stroke: rgb(31, 119, 180); stroke-opacity: 1; stroke-width: 2px;"/></g><g class="legendsymbols"><g class="legendpoints"/></g></g><rect class="legendtoggle" pointer-events="all" x="0" y="-9.5" width="95.78125" height="19" style="cursor: pointer; fill: rgb(0, 0, 0); fill-opacity: 0;"/></g><g class="traces" transform="translate(0, 33.5)" style="opacity: 1;"><text class="legendtext" text-anchor="start" x="40" y="4.680000000000001" style="font-family: 'Open Sans', verdana, arial, sans-serif; font-size: 12px; fill: rgb(68, 68, 68); fill-opacity: 1; white-space: pre;">test loss</text><g class="layers" style="opacity: 1;"><g class="legendfill"/><g class="legendlines"><path class="js-line" d="M5,0h30" style="fill: none; stroke: rgb(255, 127, 14); stroke-opacity: 1; stroke-width: 2px;"/></g><g class="legendsymbols"><g class="legendpoints"/></g></g><rect class="legendtoggle" pointer-events="all" x="0" y="-9.5" width="95.78125" height="19" style="cursor: pointer; fill: rgb(0, 0, 0); fill-opacity: 0;"/></g><g class="traces" transform="translate(0, 52.5)" style="opacity: 1;"><text class="legendtext" text-anchor="start" x="40" y="4.680000000000001" style="font-family: 'Open Sans', verdana, arial, sans-serif; font-size: 12px; fill: rgb(68, 68, 68); fill-opacity: 1; white-space: pre;">acc</text><g class="layers" style="opacity: 1;"><g class="legendfill"/><g class="legendlines"><path class="js-line" d="M5,0h30" style="fill: none; stroke: rgb(44, 160, 44); stroke-opacity: 1; stroke-width: 2px;"/></g><g class="legendsymbols"><g class="legendpoints"/></g></g><rect class="legendtoggle" pointer-events="all" x="0" y="-9.5" width="95.78125" height="19" style="cursor: pointer; fill: rgb(0, 0, 0); fill-opacity: 0;"/></g></g></g><rect class="scrollbar" rx="20" ry="3" width="0" height="0" x="0" y="0" style="fill: rgb(128, 139, 164); fill-opacity: 1;"/></g><g class="g-gtitle"><text class="gtitle" x="350" y="30" text-anchor="middle" dy="0em" style="font-family: 'Open Sans', verdana, arial, sans-serif; font-size: 17px; fill: rgb(68, 68, 68); opacity: 1; font-weight: normal; white-space: pre;">SAMPLE+PER_CLASS_50</text></g><g class="g-xtitle"/><g class="g-ytitle"/></g></svg>