<svg class="main-svg" xmlns="http://www.w3.org/2000/svg" xmlns:xlink="http://www.w3.org/1999/xlink" width="700" height="450" style="" viewBox="0 0 700 450"><rect x="0" y="0" width="700" height="450" style="fill: rgb(255, 255, 255); fill-opacity: 1;"/><defs id="defs-0cf42e"><g class="clips"><clipPath id="clip0cf42exyplot" class="plotclip"><rect width="517" height="330"/></clipPath><clipPath class="axesclip" id="clip0cf42ex"><rect x="60" y="0" width="517" height="450"/></clipPath><clipPath class="axesclip" id="clip0cf42ey"><rect x="0" y="60" width="700" height="330"/></clipPath><clipPath class="axesclip" id="clip0cf42exy"><rect x="60" y="60" width="517" height="330"/></clipPath></g><g class="gradients"/></defs><g class="bglayer"/><g class="layer-below"><g class="imagelayer"/><g class="shapelayer"/></g><g class="cartesianlayer"><g class="subplot xy"><g class="layer-subplot"><g class="shapelayer"/><g class="imagelayer"/></g><g class="gridlayer"><g class="x"><path class="xgrid crisp" transform="translate(189.9,0)" d="M0,60v330" style="stroke: rgb(238, 238, 238); stroke-opacity: 1; stroke-width: 1px;"/><path class="xgrid crisp" transform="translate(319.8,0)" d="M0,60v330" style="stroke: rgb(238, 238, 238); stroke-opacity: 1; stroke-width: 1px;"/><path class="xgrid crisp" transform="translate(449.7,0)" d="M0,60v330" style="stroke: rgb(238, 238, 238); stroke-opacity: 1; stroke-width: 1px;"/></g><g class="y"><path class="ygrid crisp" transform="translate(0,285.32)" d="M60,0h517" style="stroke: rgb(238, 238, 238); stroke-opacity: 1; stroke-width: 1px;"/><path class="ygrid crisp" transform="translate(0,197)" d="M60,0h517" style="stroke: rgb(238, 238, 238); stroke-opacity: 1; stroke-width: 1px;"/><path class="ygrid crisp" transform="translate(0,108.68)" d="M60,0h517" style="stroke: rgb(238, 238, 238); stroke-opacity: 1; stroke-width: 1px;"/></g></g><g class="zerolinelayer"><path class="xzl zl crisp" transform="translate(60,0)" d="M0,60v330" style="stroke: rgb(68, 68, 68); stroke-opacity: 1; stroke-width: 1px;"/><path class="yzl zl crisp" transform="translate(0,373.64)" d="M60,0h517" style="stroke: rgb(68, 68, 68); stroke-opacity: 1; stroke-width: 1px;"/></g><path class="xlines-below"/><path class="ylines-below"/><g class="overlines-below"/><g class="xaxislayer-below"/><g class="yaxislayer-below"/><g class="overaxes-below"/><g class="plot" transform="translate(60, 60)" clip-path="url('#clip0cf42exyplot')"><g class="scatterlayer mlayer"><g class="trace scatter trace70ff5c" style="stroke-miterlimit: 2; opacity: 1;"><g class="fills"/><g class="errorbars"/><g class="lines"><path class="js-line" d="M0,16.5L2.6,169.49L5.2,213.42L10.39,250.78L12.99,260.58L15.59,270.28L18.19,271.49L20.78,277.92L23.38,277.42L25.98,289.09L28.58,289.07L31.18,290.25L33.77,292.45L38.97,292.63L41.57,287.81L44.17,294.15L46.76,296.89L49.36,295.91L51.96,298.42L54.56,301.53L57.16,300.39L62.35,300.02L64.95,302.71L67.55,300.85L70.15,302.19L72.74,302.99L75.34,300.88L77.94,306.15L80.54,306.28L88.33,306.97L90.93,306.74L93.53,304.26L96.13,305.52L98.72,305.23L101.32,307.37L106.52,308.44L109.12,308.33L111.71,309.55L114.31,309.56L116.91,308.47L119.51,308.31L122.11,308.1L124.7,309.31L127.3,309.9L129.9,309.03L132.5,308.92L135.1,309.91L140.29,310.15L142.89,308.93L145.49,309.4L148.09,310.9L150.68,310.21L153.28,310.61L161.08,312.19L163.67,311.8L171.47,311.21L174.07,311.71L179.26,310.74L181.86,311.65L184.46,312.53L187.06,312.23L205.24,311.66L207.84,312.03L213.04,312.64L215.63,312.46L218.23,312.06L220.83,312.62L233.82,311.87L236.42,312.63L275.39,313.06L277.98,312.59L285.78,313.02L288.38,313.06L311.76,313.16L314.36,312.89L319.55,313.19L322.15,313.3L374.11,313.3L376.71,313.39L415.68,313.44L418.28,313.43L428.67,313.24L431.27,313.46L452.05,313.24L454.65,313.25L467.64,313.42L470.24,313.37L504.01,313.45L506.61,313.32L517,313.45" style="vector-effect: non-scaling-stroke; fill: none; stroke: rgb(31, 119, 180); stroke-opacity: 1; stroke-width: 2px; opacity: 1;"/></g><g class="points"/><g class="text"/></g><g class="trace scatter trace597573" style="stroke-miterlimit: 2; opacity: 1;"><g class="fills"/><g class="errorbars"/><g class="lines"><path class="js-line" d="M0,170.37L2.6,219.36L5.2,244.15L7.79,237.15L10.39,257.88L12.99,270.62L15.59,271.8L18.19,276.09L20.78,277.22L23.38,273.46L25.98,278.13L28.58,283.34L31.18,283.06L33.77,284.31L36.37,264.46L38.97,271.31L41.57,287.68L44.17,286.67L46.76,284.82L49.36,282.62L51.96,293.46L54.56,289.33L57.16,291.37L59.75,286.19L62.35,293.21L67.55,292.23L70.15,296.35L72.74,296.99L75.34,292.56L80.54,296.08L83.14,296.03L85.73,296.46L88.33,294.83L90.93,291.71L93.53,290.27L96.13,293.76L98.72,293.45L101.32,292.67L103.92,298.75L106.52,298.22L109.12,295.69L111.71,295.74L114.31,291.88L116.91,297.49L119.51,293.06L122.11,295.46L124.7,295.21L127.3,294.69L129.9,296.43L132.5,293.18L135.1,295.43L140.29,291.43L142.89,293.36L148.09,292.68L150.68,290.26L153.28,292.64L155.88,292.84L158.48,293.65L161.08,295.71L163.67,296.03L166.27,295.29L168.87,295.07L171.47,291.96L174.07,293.95L176.66,289.74L179.26,290.89L181.86,293L184.46,292.8L187.06,291.72L189.65,292.55L192.25,291.6L194.85,292.41L197.45,290.16L200.05,291.31L202.64,290.65L205.24,289.84L207.84,286.03L210.44,292.17L213.04,292.1L215.63,291.99L218.23,290.03L220.83,289.19L223.43,291.37L226.03,289.81L228.62,292.38L231.22,290.19L233.82,292.54L241.61,290.47L244.21,288.67L246.81,288.33L249.41,289.99L254.6,290.01L257.2,289.36L259.8,289.72L262.4,289.31L272.79,290.54L275.39,289.73L277.98,288.4L280.58,288.33L285.78,290.13L288.38,289.85L290.97,290.46L293.57,288.82L296.17,289.54L298.77,289.04L303.96,288.2L306.56,288.03L314.36,289.06L316.95,288.69L327.35,288.83L329.94,288.32L332.54,287.64L335.14,288.07L342.93,289.58L345.53,288.53L348.13,287L350.73,287.43L353.33,287.01L355.92,287.71L358.52,287L361.12,287.99L363.72,287.02L366.32,287.55L371.51,286.73L374.11,287.95L379.31,287.17L381.9,288.57L389.7,287.9L392.3,288.53L394.89,287.33L397.49,287.44L400.09,286.92L402.69,287.67L405.29,286.5L407.88,287.35L413.08,286.5L415.68,286.85L426.07,287.37L428.67,287.98L436.46,287.28L439.06,287.01L441.66,285.84L444.26,287L446.85,286.14L449.45,287.22L452.05,286.57L454.65,287.36L480.63,286.95L483.23,286.65L493.62,286.57L496.22,286.42L498.81,286.21L501.41,286.9L506.61,286.61L509.21,286.83L511.8,286.83L514.4,286.07L517,286.57" style="vector-effect: non-scaling-stroke; fill: none; stroke: rgb(255, 127, 14); stroke-opacity: 1; stroke-width: 2px; opacity: 1;"/></g><g class="points"/><g class="text"/></g><g class="trace scatter tracebd2efc" style="stroke-miterlimit: 2; opacity: 1;"><g class="fills"/><g class="errorbars"/><g class="lines"><path class="js-line" d="M0,187.04L2.6,168.15L5.2,158.14L7.79,163.09L10.39,154.16L12.99,150.7L15.59,149.39L20.78,147.48L23.38,149.26L28.58,145.46L31.18,146.42L33.77,145.95L36.37,147.23L38.97,148.99L41.57,143.95L44.17,145.19L46.76,145.33L49.36,145.47L51.96,142.38L57.16,142.95L59.75,144.75L62.35,142.23L64.95,142.17L67.55,142.65L70.15,142.04L72.74,141.25L75.34,142.69L80.54,140.9L83.14,141.4L88.33,141.35L90.93,142.2L93.53,142.81L96.13,142.14L101.32,141.7L103.92,140.5L109.12,140.75L111.71,141.02L114.31,141.59L116.91,140.54L119.51,141.58L122.11,140.66L132.5,140.89L135.1,140.22L140.29,140.8L142.89,140.58L148.09,140.42L150.68,140.88L153.28,140.12L155.88,140.17L158.48,140.34L161.08,139.69L171.47,140.54L174.07,140.23L179.26,140.41L181.86,140.05L189.65,139.99L192.25,140.17L205.24,140.41L207.84,142.19L210.44,139.69L213.04,139.96L327.35,139.77L329.94,139.96L342.93,139.7L345.53,139.82L392.3,139.62L394.89,139.7L413.08,139.82L415.68,139.76L454.65,139.73L457.25,139.72L517,139.78" style="vector-effect: non-scaling-stroke; fill: none; stroke: rgb(44, 160, 44); stroke-opacity: 1; stroke-width: 2px; opacity: 1;"/></g><g class="points"/><g class="text"/></g></g></g><g class="overplot"/><path class="xlines-above crisp" d="M0,0" style="fill: none;"/><path class="ylines-above crisp" d="M0,0" style="fill: none;"/><g class="overlines-above"/><g class="xaxislayer-above"><g class="xtick"><text text-anchor="middle" x="0" y="403" transform="translate(60,0)" style="font-family: 'Open Sans', verdana, arial, sans-serif; font-size: 12px; fill: rgb(68, 68, 68); fill-opacity: 1; white-space: pre;">0</text></g><g class="xtick"><text text-anchor="middle" x="0" y="403" transform="translate(189.9,0)" style="font-family: 'Open Sans', verdana, arial, sans-serif; font-size: 12px; fill: rgb(68, 68, 68); fill-opacity: 1; white-space: pre;">50</text></g><g class="xtick"><text text-anchor="middle" x="0" y="403" transform="translate(319.8,0)" style="font-family: 'Open Sans', verdana, arial, sans-serif; font-size: 12px; fill: rgb(68, 68, 68); fill-opacity: 1; white-space: pre;">100</text></g><g class="xtick"><text text-anchor="middle" x="0" y="403" transform="translate(449.7,0)" style="font-family: 'Open Sans', verdana, arial, sans-serif; font-size: 12px; fill: rgb(68, 68, 68); fill-opacity: 1; white-space: pre;">150</text></g></g><g class="yaxislayer-above"><g class="ytick"><text text-anchor="end" x="59" y="4.199999999999999" transform="translate(0,373.64)" style="font-family: 'Open Sans', verdana, arial, sans-serif; font-size: 12px; fill: rgb(68, 68, 68); fill-opacity: 1; white-space: pre;">0</text></g><g class="ytick"><text text-anchor="end" x="59" y="4.199999999999999" transform="translate(0,285.32)" style="font-family: 'Open Sans', verdana, arial, sans-serif; font-size: 12px; fill: rgb(68, 68, 68); fill-opacity: 1; white-space: pre;">0.5</text></g><g class="ytick"><text text-anchor="end" x="59" y="4.199999999999999" transform="translate(0,197)" style="font-family: 'Open Sans', verdana, arial, sans-serif; font-size: 12px; fill: rgb(68, 68, 68); fill-opacity: 1; white-space: pre;">1</text></g><g class="ytick"><text text-anchor="end" x="59" y="4.199999999999999" transform="translate(0,108.68)" style="font-family: 'Open Sans', verdana, arial, sans-serif; font-size: 12px; fill: rgb(68, 68, 68); fill-opacity: 1; white-space: pre;">1.5</text></g></g><g class="overaxes-above"/></g></g><g class="polarlayer"/><g class="ternarylayer"/><g class="geolayer"/><g class="funnelarealayer"/><g class="pielayer"/><g class="treemaplayer"/><g class="sunburstlayer"/><g class="glimages"/><defs id="topdefs-0cf42e"><g class="clips"/><clipPath id="legend0cf42e"><rect width="101" height="67" x="0" y="0"/></clipPath></defs><g class="layer-above"><g class="imagelayer"/><g class="shapelayer"/></g><g class="infolayer"><g class="legend" pointer-events="all" transform="translate(587.34, 60)"><rect class="bg" shape-rendering="crispEdges" width="101" height="67" x="0" y="0" style="stroke: rgb(68, 68, 68); stroke-opacity: 1; fill: rgb(255, 255, 255); fill-opacity: 1; stroke-width: 0px;"/><g class="scrollbox" transform="translate(0, 0)" clip-path="url('#legend0cf42e')"><g class="groups"><g class="traces" transform="translate(0, 14.5)" style="opacity: 1;"><text class="legendtext" text-anchor="start" x="40" y="4.680000000000001" style="font-family: 'Open Sans', verdana, arial, sans-serif; font-size: 12px; fill: rgb(68, 68, 68); fill-opacity: 1; white-space: pre;">train loss</text><g class="layers" style="opacity: 1;"><g class="legendfill"/><g class="legendlines"><path class="js-line" d="M5,0h30" style="fill: none; stroke: rgb(31, 119, 180); stroke-opacity: 1; stroke-width: 2px;"/></g><g class="legendsymbols"><g class="legendpoints"/></g></g><rect class="legendtoggle" pointer-events="all" x="0" y="-9.5" width="95.78125" height="19" style="cursor: pointer; fill: rgb(0, 0, 0); fill-opacity: 0;"/></g><g class="traces" transform="translate(0, 33.5)" style="opacity: 1;"><text class="legendtext" text-anchor="start" x="40" y="4.680000000000001" style="font-family: 'Open Sans', verdana, arial, sans-serif; font-size: 12px; fill: rgb(68, 68, 68); fill-opacity: 1; white-space: pre;">test loss</text><g class="layers" style="opacity: 1;"><g class="legendfill"/><g class="legendlines"><path class="js-line" d="M5,0h30" style="fill: none; stroke: rgb(255, 127, 14); stroke-opacity: 1; stroke-width: 2px;"/></g><g class="legendsymbols"><g class="legendpoints"/></g></g><rect class="legendtoggle" pointer-events="all" x="0" y="-9.5" width="95.78125" height="19" style="cursor: pointer; fill: rgb(0, 0, 0); fill-opacity: 0;"/></g><g class="traces" transform="translate(0, 52.5)" style="opacity: 1;"><text class="legendtext" text-anchor="start" x="40" y="4.680000000000001" style="font-family: 'Open Sans', verdana, arial, sans-serif; font-size: 12px; fill: rgb(68, 68, 68); fill-opacity: 1; white-space: pre;">acc</text><g class="layers" style="opacity: 1;"><g class="legendfill"/><g class="legendlines"><path class="js-line" d="M5,0h30" style="fill: none; stroke: rgb(44, 160, 44); stroke-opacity: 1; stroke-width: 2px;"/></g><g class="legendsymbols"><g class="legendpoints"/></g></g><rect class="legendtoggle" pointer-events="all" x="0" y="-9.5" width="95.78125" height="19" style="cursor: pointer; fill: rgb(0, 0, 0); fill-opacity: 0;"/></g></g></g><rect class="scrollbar" rx="20" ry="3" width="0" height="0" x="0" y="0" style="fill: rgb(128, 139, 164); fill-opacity: 1;"/></g><g class="g-gtitle"><text class="gtitle" x="350" y="30" text-anchor="middle" dy="0em" style="font-family: 'Open Sans', verdana, arial, sans-serif; font-size: 17px; fill: rgb(68, 68, 68); opacity: 1; font-weight: normal; white-space: pre;">SAMPLE+PER_CLASS_100</text></g><g class="g-xtitle"/><g class="g-ytitle"/></g></svg>