<svg class="main-svg" xmlns="http://www.w3.org/2000/svg" xmlns:xlink="http://www.w3.org/1999/xlink" width="700" height="450" style="" viewBox="0 0 700 450"><rect x="0" y="0" width="700" height="450" style="fill: rgb(255, 255, 255); fill-opacity: 1;"/><defs id="defs-409d1c"><g class="clips"><clipPath id="clip409d1cxyplot" class="plotclip"><rect width="517" height="330"/></clipPath><clipPath class="axesclip" id="clip409d1cx"><rect x="60" y="0" width="517" height="450"/></clipPath><clipPath class="axesclip" id="clip409d1cy"><rect x="0" y="60" width="700" height="330"/></clipPath><clipPath class="axesclip" id="clip409d1cxy"><rect x="60" y="60" width="517" height="330"/></clipPath></g><g class="gradients"/></defs><g class="bglayer"/><g class="layer-below"><g class="imagelayer"/><g class="shapelayer"/></g><g class="cartesianlayer"><g class="subplot xy"><g class="layer-subplot"><g class="shapelayer"/><g class="imagelayer"/></g><g class="gridlayer"><g class="x"><path class="xgrid crisp" transform="translate(189.9,0)" d="M0,60v330" style="stroke: rgb(238, 238, 238); stroke-opacity: 1; stroke-width: 1px;"/><path class="xgrid crisp" transform="translate(319.8,0)" d="M0,60v330" style="stroke: rgb(238, 238, 238); stroke-opacity: 1; stroke-width: 1px;"/><path class="xgrid crisp" transform="translate(449.7,0)" d="M0,60v330" style="stroke: rgb(238, 238, 238); stroke-opacity: 1; stroke-width: 1px;"/></g><g class="y"><path class="ygrid crisp" transform="translate(0,331.07)" d="M60,0h517" style="stroke: rgb(238, 238, 238); stroke-opacity: 1; stroke-width: 1px;"/><path class="ygrid crisp" transform="translate(0,288.2)" d="M60,0h517" style="stroke: rgb(238, 238, 238); stroke-opacity: 1; stroke-width: 1px;"/><path class="ygrid crisp" transform="translate(0,245.32)" d="M60,0h517" style="stroke: rgb(238, 238, 238); stroke-opacity: 1; stroke-width: 1px;"/><path class="ygrid crisp" transform="translate(0,202.44)" d="M60,0h517" style="stroke: rgb(238, 238, 238); stroke-opacity: 1; stroke-width: 1px;"/><path class="ygrid crisp" transform="translate(0,159.57)" d="M60,0h517" style="stroke: rgb(238, 238, 238); stroke-opacity: 1; stroke-width: 1px;"/><path class="ygrid crisp" transform="translate(0,116.69)" d="M60,0h517" style="stroke: rgb(238, 238, 238); stroke-opacity: 1; stroke-width: 1px;"/><path class="ygrid crisp" transform="translate(0,73.81)" d="M60,0h517" style="stroke: rgb(238, 238, 238); stroke-opacity: 1; stroke-width: 1px;"/></g></g><g class="zerolinelayer"><path class="xzl zl crisp" transform="translate(60,0)" d="M0,60v330" style="stroke: rgb(68, 68, 68); stroke-opacity: 1; stroke-width: 1px;"/><path class="yzl zl crisp" transform="translate(0,373.95)" d="M60,0h517" style="stroke: rgb(68, 68, 68); stroke-opacity: 1; stroke-width: 1px;"/></g><path class="xlines-below"/><path class="ylines-below"/><g class="overlines-below"/><g class="xaxislayer-below"/><g class="yaxislayer-below"/><g class="overaxes-below"/><g class="plot" transform="translate(60, 60)" clip-path="url('#clip409d1cxyplot')"><g class="scatterlayer mlayer"><g class="trace scatter trace6af550" style="stroke-miterlimit: 2; opacity: 1;"><g class="fills"/><g class="errorbars"/><g class="lines"><path class="js-line" d="M0,16.5L2.6,127.25L5.2,157.17L10.39,195.76L12.99,208.64L15.59,219.77L18.19,226.96L20.78,238.86L23.38,244.2L25.98,257.17L28.58,262.01L31.18,265.78L33.77,272.18L36.37,271.79L38.97,276.98L41.57,276.79L44.17,282.07L46.76,286.16L49.36,286.77L51.96,289.29L54.56,294.65L57.16,295.69L59.75,294.78L64.95,299.11L67.55,300L70.15,300.17L72.74,298.68L77.94,299.36L80.54,302.81L83.14,303.16L85.73,304.81L88.33,305.28L90.93,304.5L93.53,304.41L96.13,306.06L111.71,308.69L114.31,308.61L116.91,309.77L119.51,309.72L122.11,310.42L124.7,310.11L127.3,308.44L129.9,309.31L135.1,310L137.69,310.93L140.29,310.11L142.89,310.51L145.49,310.13L148.09,310.67L153.28,310.28L155.88,311.01L158.48,311.85L161.08,310.36L163.67,311.34L166.27,310.84L168.87,311.79L171.47,311.71L179.26,312.27L181.86,311.87L205.24,312.86L207.84,312.02L231.22,312.86L233.82,312.14L241.61,312.72L244.21,312.3L257.2,312.9L259.8,312.82L270.19,312.9L272.79,311.99L275.39,312.92L277.98,312.87L290.97,312.66L293.57,312.93L311.76,313.18L314.36,313.15L332.54,313.24L335.14,312.46L340.34,313.31L342.93,313.27L355.92,313.05L358.52,313.29L384.5,313.39L387.1,313.39L400.09,313.19L402.69,313.43L410.48,313.21L413.08,313.33L452.05,313.3L454.65,313.39L517,313.32" style="vector-effect: non-scaling-stroke; fill: none; stroke: rgb(31, 119, 180); stroke-opacity: 1; stroke-width: 2px; opacity: 1;"/></g><g class="points"/><g class="text"/></g><g class="trace scatter trace5742ed" style="stroke-miterlimit: 2; opacity: 1;"><g class="fills"/><g class="errorbars"/><g class="lines"><path class="js-line" d="M0,128.8L2.6,148.45L5.2,179.9L7.79,185.8L10.39,199.89L12.99,202.82L15.59,212.17L23.38,232.13L25.98,233.65L28.58,234.38L31.18,240.69L33.77,238.56L36.37,240.35L38.97,244.22L41.57,245.21L44.17,239.71L46.76,241.96L49.36,237.13L51.96,245.72L54.56,249.61L57.16,250.6L59.75,243.91L62.35,249.63L64.95,250.93L67.55,250.12L70.15,242.79L72.74,248.03L75.34,225.98L77.94,249.13L80.54,244.93L83.14,249.13L88.33,249.58L90.93,250.45L96.13,247.82L98.72,249.82L103.92,247.95L106.52,248.19L111.71,249.62L114.31,248.87L116.91,249.73L119.51,247.71L122.11,248.2L124.7,247.08L127.3,242.82L129.9,246.68L132.5,245.83L135.1,245.96L137.69,248.18L140.29,247.4L142.89,246.82L145.49,242.56L148.09,246.84L150.68,245.8L158.48,246.06L161.08,243.61L163.67,245.82L166.27,245.78L168.87,244.1L171.47,244.41L176.66,244.47L179.26,245.41L184.46,242.5L187.06,244.05L189.65,243.13L192.25,244.27L194.85,243.62L197.45,244.95L200.05,245.47L202.64,244.6L205.24,245.05L207.84,242.97L210.44,244.21L213.04,242.55L218.23,242.24L220.83,244.12L223.43,243.46L226.03,244.35L233.82,242.92L236.42,243.5L239.02,243.7L241.61,242.87L244.21,242.71L246.81,241.04L252.01,242.53L254.6,242.1L257.2,242.51L259.8,242.04L264.99,242.38L267.59,240.62L288.38,240.62L290.97,239.66L293.57,240.9L296.17,239.14L298.77,240.42L301.37,239.8L316.95,239.92L319.55,240.06L322.15,239.09L324.75,239.83L329.94,238.89L332.54,239.65L337.74,240.06L340.34,240.43L348.13,239.79L350.73,238.58L353.33,239.41L355.92,238.25L358.52,238.79L361.12,237.55L363.72,238.93L366.32,239.12L374.11,238.42L376.71,238.87L379.31,239.17L381.9,237.94L387.1,238.84L389.7,238.57L394.89,237.77L397.49,238.73L400.09,238.19L402.69,238.95L405.29,238.88L407.88,238.02L410.48,238.55L413.08,237.9L423.47,238.33L426.07,237.47L428.67,238.51L431.27,238.53L436.46,237.54L439.06,238.5L441.66,238.17L444.26,236.99L446.85,237.79L449.45,237.73L457.25,237.74L459.84,236.72L465.04,236.33L467.64,237.97L475.43,237.65L478.03,238.36L480.63,237.57L483.23,237.96L485.82,238.96L488.42,237.72L501.41,238.15L504.01,238.22L506.61,237.36L509.21,238.13L511.8,236.97L514.4,237.61L517,238.02" style="vector-effect: non-scaling-stroke; fill: none; stroke: rgb(255, 127, 14); stroke-opacity: 1; stroke-width: 2px; opacity: 1;"/></g><g class="points"/><g class="text"/></g><g class="trace scatter traceea195e" style="stroke-miterlimit: 2; opacity: 1;"><g class="fills"/><g class="errorbars"/><g class="lines"><path class="js-line" d="M0,292.68L2.6,287.22L5.2,276.4L10.39,269.86L12.99,268.72L20.78,257.95L23.38,255.05L25.98,254.09L28.58,254.18L31.18,252L33.77,252.5L38.97,250.31L41.57,249.57L44.17,250.78L46.76,249.62L49.36,250.79L51.96,247.96L54.56,246.59L57.16,246.51L59.75,247.74L62.35,246.05L67.55,245.67L70.15,247.75L72.74,246.18L75.34,248.66L77.94,245.34L80.54,246.08L83.14,245.07L85.73,244.93L90.93,244.66L93.53,245.06L101.32,244.37L103.92,244.92L109.12,244.25L111.71,243.84L124.7,243.79L127.3,245.09L132.5,243.99L135.1,243.78L140.29,243.56L142.89,243.55L145.49,244.41L148.09,243.6L161.08,243.83L163.67,243.12L176.66,243.68L179.26,243.28L197.45,243.15L200.05,242.93L218.23,243.18L220.83,243.04L249.41,242.96L252.01,242.85L262.4,242.91L264.99,242.9L275.39,243L277.98,242.96L309.16,243.01L311.76,242.93L376.71,242.82L379.31,242.99L397.49,242.82L400.09,242.93L410.48,242.65L413.08,242.77L449.45,242.89L452.05,242.83L478.03,242.78L480.63,242.75L493.62,242.61L496.22,242.58L517,242.67" style="vector-effect: non-scaling-stroke; fill: none; stroke: rgb(44, 160, 44); stroke-opacity: 1; stroke-width: 2px; opacity: 1;"/></g><g class="points"/><g class="text"/></g></g></g><g class="overplot"/><path class="xlines-above crisp" d="M0,0" style="fill: none;"/><path class="ylines-above crisp" d="M0,0" style="fill: none;"/><g class="overlines-above"/><g class="xaxislayer-above"><g class="xtick"><text text-anchor="middle" x="0" y="403" transform="translate(60,0)" style="font-family: 'Open Sans', verdana, arial, sans-serif; font-size: 12px; fill: rgb(68, 68, 68); fill-opacity: 1; white-space: pre;">0</text></g><g class="xtick"><text text-anchor="middle" x="0" y="403" transform="translate(189.9,0)" style="font-family: 'Open Sans', verdana, arial, sans-serif; font-size: 12px; fill: rgb(68, 68, 68); fill-opacity: 1; white-space: pre;">50</text></g><g class="xtick"><text text-anchor="middle" x="0" y="403" transform="translate(319.8,0)" style="font-family: 'Open Sans', verdana, arial, sans-serif; font-size: 12px; fill: rgb(68, 68, 68); fill-opacity: 1; white-space: pre;">100</text></g><g class="xtick"><text text-anchor="middle" x="0" y="403" transform="translate(449.7,0)" style="font-family: 'Open Sans', verdana, arial, sans-serif; font-size: 12px; fill: rgb(68, 68, 68); fill-opacity: 1; white-space: pre;">150</text></g></g><g class="yaxislayer-above"><g class="ytick"><text text-anchor="end" x="59" y="4.199999999999999" transform="translate(0,373.95)" style="font-family: 'Open Sans', verdana, arial, sans-serif; font-size: 12px; fill: rgb(68, 68, 68); fill-opacity: 1; white-space: pre;">0</text></g><g class="ytick"><text text-anchor="end" x="59" y="4.199999999999999" transform="translate(0,331.07)" style="font-family: 'Open Sans', verdana, arial, sans-serif; font-size: 12px; fill: rgb(68, 68, 68); fill-opacity: 1; white-space: pre;">0.5</text></g><g class="ytick"><text text-anchor="end" x="59" y="4.199999999999999" transform="translate(0,288.2)" style="font-family: 'Open Sans', verdana, arial, sans-serif; font-size: 12px; fill: rgb(68, 68, 68); fill-opacity: 1; white-space: pre;">1</text></g><g class="ytick"><text text-anchor="end" x="59" y="4.199999999999999" transform="translate(0,245.32)" style="font-family: 'Open Sans', verdana, arial, sans-serif; font-size: 12px; fill: rgb(68, 68, 68); fill-opacity: 1; white-space: pre;">1.5</text></g><g class="ytick"><text text-anchor="end" x="59" y="4.199999999999999" transform="translate(0,202.44)" style="font-family: 'Open Sans', verdana, arial, sans-serif; font-size: 12px; fill: rgb(68, 68, 68); fill-opacity: 1; white-space: pre;">2</text></g><g class="ytick"><text text-anchor="end" x="59" y="4.199999999999999" transform="translate(0,159.57)" style="font-family: 'Open Sans', verdana, arial, sans-serif; font-size: 12px; fill: rgb(68, 68, 68); fill-opacity: 1; white-space: pre;">2.5</text></g><g class="ytick"><text text-anchor="end" x="59" y="4.199999999999999" transform="translate(0,116.69)" style="font-family: 'Open Sans', verdana, arial, sans-serif; font-size: 12px; fill: rgb(68, 68, 68); fill-opacity: 1; white-space: pre;">3</text></g><g class="ytick"><text text-anchor="end" x="59" y="4.199999999999999" transform="translate(0,73.81)" style="font-family: 'Open Sans', verdana, arial, sans-serif; font-size: 12px; fill: rgb(68, 68, 68); fill-opacity: 1; white-space: pre;">3.5</text></g></g><g class="overaxes-above"/></g></g><g class="polarlayer"/><g class="ternarylayer"/><g class="geolayer"/><g class="funnelarealayer"/><g class="pielayer"/><g class="treemaplayer"/><g class="sunburstlayer"/><g class="glimages"/><defs id="topdefs-409d1c"><g class="clips"/><clipPath id="legend409d1c"><rect width="101" height="67" x="0" y="0"/></clipPath></defs><g class="layer-above"><g class="imagelayer"/><g class="shapelayer"/></g><g class="infolayer"><g class="legend" pointer-events="all" transform="translate(587.34, 60)"><rect class="bg" shape-rendering="crispEdges" width="101" height="67" x="0" y="0" style="stroke: rgb(68, 68, 68); stroke-opacity: 1; fill: rgb(255, 255, 255); fill-opacity: 1; stroke-width: 0px;"/><g class="scrollbox" transform="translate(0, 0)" clip-path="url('#legend409d1c')"><g class="groups"><g class="traces" transform="translate(0, 14.5)" style="opacity: 1;"><text class="legendtext" text-anchor="start" x="40" y="4.680000000000001" style="font-family: 'Open Sans', verdana, arial, sans-serif; font-size: 12px; fill: rgb(68, 68, 68); fill-opacity: 1; white-space: pre;">train loss</text><g class="layers" style="opacity: 1;"><g class="legendfill"/><g class="legendlines"><path class="js-line" d="M5,0h30" style="fill: none; stroke: rgb(31, 119, 180); stroke-opacity: 1; stroke-width: 2px;"/></g><g class="legendsymbols"><g class="legendpoints"/></g></g><rect class="legendtoggle" pointer-events="all" x="0" y="-9.5" width="95.78125" height="19" style="cursor: pointer; fill: rgb(0, 0, 0); fill-opacity: 0;"/></g><g class="traces" transform="translate(0, 33.5)" style="opacity: 1;"><text class="legendtext" text-anchor="start" x="40" y="4.680000000000001" style="font-family: 'Open Sans', verdana, arial, sans-serif; font-size: 12px; fill: rgb(68, 68, 68); fill-opacity: 1; white-space: pre;">test loss</text><g class="layers" style="opacity: 1;"><g class="legendfill"/><g class="legendlines"><path class="js-line" d="M5,0h30" style="fill: none; stroke: rgb(255, 127, 14); stroke-opacity: 1; stroke-width: 2px;"/></g><g class="legendsymbols"><g class="legendpoints"/></g></g><rect class="legendtoggle" pointer-events="all" x="0" y="-9.5" width="95.78125" height="19" style="cursor: pointer; fill: rgb(0, 0, 0); fill-opacity: 0;"/></g><g class="traces" transform="translate(0, 52.5)" style="opacity: 1;"><text class="legendtext" text-anchor="start" x="40" y="4.680000000000001" style="font-family: 'Open Sans', verdana, arial, sans-serif; font-size: 12px; fill: rgb(68, 68, 68); fill-opacity: 1; white-space: pre;">acc</text><g class="layers" style="opacity: 1;"><g class="legendfill"/><g class="legendlines"><path class="js-line" d="M5,0h30" style="fill: none; stroke: rgb(44, 160, 44); stroke-opacity: 1; stroke-width: 2px;"/></g><g class="legendsymbols"><g class="legendpoints"/></g></g><rect class="legendtoggle" pointer-events="all" x="0" y="-9.5" width="95.78125" height="19" style="cursor: pointer; fill: rgb(0, 0, 0); fill-opacity: 0;"/></g></g></g><rect class="scrollbar" rx="20" ry="3" width="0" height="0" x="0" y="0" style="fill: rgb(128, 139, 164); fill-opacity: 1;"/></g><g class="g-gtitle"><text class="gtitle" x="350" y="30" text-anchor="middle" dy="0em" style="font-family: 'Open Sans', verdana, arial, sans-serif; font-size: 17px; fill: rgb(68, 68, 68); opacity: 1; font-weight: normal; white-space: pre;">SAMPLE+PER_CLASS_10</text></g><g class="g-xtitle"/><g class="g-ytitle"/></g></svg>