<svg class="main-svg" xmlns="http://www.w3.org/2000/svg" xmlns:xlink="http://www.w3.org/1999/xlink" width="700" height="450" style="" viewBox="0 0 700 450"><rect x="0" y="0" width="700" height="450" style="fill: rgb(255, 255, 255); fill-opacity: 1;"/><defs id="defs-23e313"><g class="clips"><clipPath id="clip23e313xyplot" class="plotclip"><rect width="517" height="330"/></clipPath><clipPath class="axesclip" id="clip23e313x"><rect x="60" y="0" width="517" height="450"/></clipPath><clipPath class="axesclip" id="clip23e313y"><rect x="0" y="60" width="700" height="330"/></clipPath><clipPath class="axesclip" id="clip23e313xy"><rect x="60" y="60" width="517" height="330"/></clipPath></g><g class="gradients"/></defs><g class="bglayer"/><g class="layer-below"><g class="imagelayer"/><g class="shapelayer"/></g><g class="cartesianlayer"><g class="subplot xy"><g class="layer-subplot"><g class="shapelayer"/><g class="imagelayer"/></g><g class="gridlayer"><g class="x"><path class="xgrid crisp" transform="translate(189.9,0)" d="M0,60v330" style="stroke: rgb(238, 238, 238); stroke-opacity: 1; stroke-width: 1px;"/><path class="xgrid crisp" transform="translate(319.8,0)" d="M0,60v330" style="stroke: rgb(238, 238, 238); stroke-opacity: 1; stroke-width: 1px;"/><path class="xgrid crisp" transform="translate(449.7,0)" d="M0,60v330" style="stroke: rgb(238, 238, 238); stroke-opacity: 1; stroke-width: 1px;"/></g><g class="y"><path class="ygrid crisp" transform="translate(0,318.48)" d="M60,0h517" style="stroke: rgb(238, 238, 238); stroke-opacity: 1; stroke-width: 1px;"/><path class="ygrid crisp" transform="translate(0,262.65)" d="M60,0h517" style="stroke: rgb(238, 238, 238); stroke-opacity: 1; stroke-width: 1px;"/><path class="ygrid crisp" transform="translate(0,206.82)" d="M60,0h517" style="stroke: rgb(238, 238, 238); stroke-opacity: 1; stroke-width: 1px;"/><path class="ygrid crisp" transform="translate(0,150.98000000000002)" d="M60,0h517" style="stroke: rgb(238, 238, 238); stroke-opacity: 1; stroke-width: 1px;"/><path class="ygrid crisp" transform="translate(0,95.15)" d="M60,0h517" style="stroke: rgb(238, 238, 238); stroke-opacity: 1; stroke-width: 1px;"/></g></g><g class="zerolinelayer"><path class="xzl zl crisp" transform="translate(60,0)" d="M0,60v330" style="stroke: rgb(68, 68, 68); stroke-opacity: 1; stroke-width: 1px;"/><path class="yzl zl crisp" transform="translate(0,374.32)" d="M60,0h517" style="stroke: rgb(68, 68, 68); stroke-opacity: 1; stroke-width: 1px;"/></g><path class="xlines-below"/><path class="ylines-below"/><g class="overlines-below"/><g class="xaxislayer-below"/><g class="yaxislayer-below"/><g class="overaxes-below"/><g class="plot" transform="translate(60, 60)" clip-path="url('#clip23e313xyplot')"><g class="scatterlayer mlayer"><g class="trace scatter tracecbbe47" style="stroke-miterlimit: 2; opacity: 1;"><g class="fills"/><g class="errorbars"/><g class="lines"><path class="js-line" d="M0,16.5L2.6,147.21L5.2,183.58L12.99,225.67L15.59,228.05L18.19,232.85L20.78,241.14L25.98,258.3L28.58,261.02L31.18,259.46L33.77,266.01L36.37,266.24L38.97,267.99L41.57,275.93L44.17,277.82L46.76,277.29L49.36,280.09L51.96,281.63L54.56,284.86L57.16,284.21L59.75,286.54L62.35,283.99L64.95,290.88L67.55,294.81L70.15,294.45L72.74,295.06L75.34,293.03L77.94,299.26L80.54,300.65L83.14,301.37L85.73,303.28L88.33,301.6L90.93,300.95L93.53,301.4L96.13,300.29L98.72,299.82L101.32,302.16L103.92,300.32L106.52,304.8L109.12,305.21L111.71,306.78L114.31,307.15L116.91,306.64L124.7,308.35L127.3,306.52L129.9,308.53L132.5,309.38L135.1,309.89L137.69,309.43L148.09,310.67L150.68,309.38L153.28,310.28L155.88,309.76L158.48,310.94L161.08,310.48L171.47,311.42L174.07,311.07L184.46,310.87L187.06,311.6L200.05,311.9L202.64,311.76L205.24,311.45L207.84,311.95L218.23,311.77L220.83,310.74L223.43,309.7L226.03,311.35L228.62,311.77L231.22,310.83L233.82,311.81L236.42,309.65L239.02,311.71L241.61,311.31L244.21,312.72L246.81,312.73L262.4,312.86L264.99,310.49L267.59,312.37L270.19,312.63L275.39,312.58L277.98,312.68L306.56,312.91L309.16,312.58L314.36,312.83L316.95,312.79L342.93,313.25L345.53,313.05L348.13,313.13L350.73,307.13L353.33,312.94L355.92,311.7L358.52,313L361.12,312.98L368.91,313.25L371.51,313.2L394.89,313.36L397.49,313.33L410.48,313.12L413.08,313.3L415.68,313.34L418.28,312.61L426.07,313.38L428.67,313.15L436.46,313.4L439.06,313.37L467.64,313.22L470.24,313.49L488.42,313.49L491.02,312.51L496.22,313.31L498.81,313.35L517,313.43" style="vector-effect: non-scaling-stroke; fill: none; stroke: rgb(31, 119, 180); stroke-opacity: 1; stroke-width: 2px; opacity: 1;"/></g><g class="points"/><g class="text"/></g><g class="trace scatter trace4edb4e" style="stroke-miterlimit: 2; opacity: 1;"><g class="fills"/><g class="errorbars"/><g class="lines"><path class="js-line" d="M0,107.4L2.6,147.32L5.2,171.76L7.79,160.9L10.39,187.67L12.99,185.3L15.59,199.47L18.19,182.79L20.78,193.52L23.38,185.4L25.98,214.94L28.58,198.25L31.18,204.54L36.37,201.66L38.97,207.82L41.57,205.65L44.17,212.46L49.36,184.27L51.96,205.84L54.56,193.5L57.16,211.69L59.75,196.57L62.35,207.08L64.95,201.92L67.55,200.3L70.15,200.17L72.74,195.01L75.34,200.02L77.94,201.58L80.54,202.51L83.14,199.97L85.73,200.16L88.33,197.15L90.93,194.05L93.53,199.11L96.13,189.87L98.72,193.23L101.32,198.71L103.92,197.51L106.52,194.76L109.12,197.01L111.71,198.72L114.31,196.18L116.91,195.66L119.51,191.87L122.11,193.94L124.7,193.51L127.3,182.95L129.9,185.94L132.5,189.97L135.1,190.01L137.69,187.66L140.29,188.32L142.89,186.16L145.49,188.95L148.09,185.45L150.68,184.74L153.28,187.38L155.88,183.07L158.48,183.15L161.08,186.23L163.67,182.1L166.27,184.38L168.87,183.96L171.47,181.59L174.07,177.85L176.66,178.86L179.26,177.43L181.86,174.55L187.06,176.2L189.65,179.66L192.25,173.96L194.85,178.28L197.45,176.43L200.05,178.47L205.24,175.97L207.84,177.05L210.44,172.98L213.04,175.3L218.23,174.48L220.83,166.45L226.03,170.18L228.62,168.47L231.22,170L233.82,170.4L239.02,175.13L241.61,171.27L244.21,175.42L246.81,170.58L249.41,169.74L252.01,171.45L254.6,172.47L257.2,171.62L259.8,172.01L262.4,169.7L264.99,174.02L267.59,174.52L270.19,169.91L272.79,172.92L275.39,168.4L277.98,168.99L280.58,169.13L283.18,167.73L285.78,168.09L288.38,170.83L290.97,168.35L293.57,171.36L296.17,166.41L298.77,169.72L301.37,169.02L303.96,170.12L306.56,168.48L309.16,164.51L314.36,167.43L316.95,167.53L319.55,167.21L322.15,166.07L324.75,167.34L327.35,167.12L332.54,163.39L335.14,165.47L337.74,165.44L340.34,166.23L345.53,163.54L348.13,164.2L350.73,164.74L353.33,164.05L355.92,163.39L358.52,160.17L361.12,166.44L363.72,163.66L366.32,164.1L368.91,162.22L371.51,162.58L374.11,164.51L376.71,165.64L379.31,162.64L381.9,162.7L384.5,159.59L387.1,161.27L389.7,161.64L392.3,160.05L394.89,156.71L397.49,161.78L400.09,160.31L402.69,160.62L405.29,165.64L410.48,157.7L413.08,162.1L415.68,158.94L418.28,164.04L420.87,165.71L423.47,162.48L428.67,160.86L431.27,161.24L436.46,161.85L439.06,162.16L441.66,158.67L444.26,162.49L446.85,153.77L449.45,158L452.05,161.26L454.65,162.46L457.25,161.24L459.84,162.74L462.44,157.75L465.04,156.05L467.64,160.18L470.24,158.56L472.83,156.97L475.43,158.79L483.23,158.14L485.82,160.43L488.42,161.35L491.02,159.75L493.62,158.74L496.22,159.46L498.81,158.97L501.41,161.27L504.01,154.96L506.61,158.74L509.21,158.37L511.8,162.04L514.4,161.64L517,159.76" style="vector-effect: non-scaling-stroke; fill: none; stroke: rgb(255, 127, 14); stroke-opacity: 1; stroke-width: 2px; opacity: 1;"/></g><g class="points"/><g class="text"/></g><g class="trace scatter tracea44092" style="stroke-miterlimit: 2; opacity: 1;"><g class="fills"/><g class="errorbars"/><g class="lines"><path class="js-line" d="M0,284.36L2.6,269.23L5.2,259.07L7.79,266.86L10.39,254.3L12.99,254.93L15.59,248.25L18.19,256.99L20.78,247.92L23.38,247.16L25.98,243.37L28.58,246.63L31.18,243.19L33.77,239.75L36.37,242.63L38.97,239.54L41.57,240.14L44.17,237.87L46.76,243.05L49.36,243.01L51.96,238.29L54.56,241.14L57.16,236.21L59.75,238.75L62.35,236.99L64.95,237.58L67.55,236.66L70.15,238.1L72.74,238.51L75.34,236.08L77.94,235.93L85.73,235.68L88.33,236.37L90.93,236.09L93.53,234.89L96.13,236.65L98.72,235.72L103.92,234.3L106.52,234.82L109.12,235.63L111.71,234.07L116.91,233.73L119.51,234.89L122.11,233.6L124.7,233.74L127.3,235.32L129.9,234.56L132.5,233.9L135.1,234.07L142.89,234.15L145.49,233.67L158.48,234.75L161.08,233.67L163.67,234.28L166.27,233.56L174.07,233.98L176.66,234.32L181.86,234.81L184.46,234.27L189.65,233.79L192.25,234.54L194.85,233.65L197.45,233.77L200.05,233.31L202.64,233.64L210.44,233.76L213.04,233.43L226.03,234.8L228.62,234.17L233.82,233.85L236.42,233.61L239.02,233.14L241.61,233.68L246.81,233.75L249.41,233.69L254.6,233.26L257.2,233.25L290.97,233.88L293.57,233.48L314.36,233.38L316.95,233.32L379.31,233.59L381.9,233.78L402.69,233.81L405.29,233.18L415.68,233.68L418.28,233.44L431.27,233.58L433.86,233.68L459.84,233.46L462.44,234.01L501.41,233.37L504.01,233.78L517,233.52" style="vector-effect: non-scaling-stroke; fill: none; stroke: rgb(44, 160, 44); stroke-opacity: 1; stroke-width: 2px; opacity: 1;"/></g><g class="points"/><g class="text"/></g></g></g><g class="overplot"/><path class="xlines-above crisp" d="M0,0" style="fill: none;"/><path class="ylines-above crisp" d="M0,0" style="fill: none;"/><g class="overlines-above"/><g class="xaxislayer-above"><g class="xtick"><text text-anchor="middle" x="0" y="403" transform="translate(60,0)" style="font-family: 'Open Sans', verdana, arial, sans-serif; font-size: 12px; fill: rgb(68, 68, 68); fill-opacity: 1; white-space: pre;">0</text></g><g class="xtick"><text text-anchor="middle" x="0" y="403" transform="translate(189.9,0)" style="font-family: 'Open Sans', verdana, arial, sans-serif; font-size: 12px; fill: rgb(68, 68, 68); fill-opacity: 1; white-space: pre;">50</text></g><g class="xtick"><text text-anchor="middle" x="0" y="403" transform="translate(319.8,0)" style="font-family: 'Open Sans', verdana, arial, sans-serif; font-size: 12px; fill: rgb(68, 68, 68); fill-opacity: 1; white-space: pre;">100</text></g><g class="xtick"><text text-anchor="middle" x="0" y="403" transform="translate(449.7,0)" style="font-family: 'Open Sans', verdana, arial, sans-serif; font-size: 12px; fill: rgb(68, 68, 68); fill-opacity: 1; white-space: pre;">150</text></g></g><g class="yaxislayer-above"><g class="ytick"><text text-anchor="end" x="59" y="4.199999999999999" transform="translate(0,374.32)" style="font-family: 'Open Sans', verdana, arial, sans-serif; font-size: 12px; fill: rgb(68, 68, 68); fill-opacity: 1; white-space: pre;">0</text></g><g class="ytick"><text text-anchor="end" x="59" y="4.199999999999999" transform="translate(0,318.48)" style="font-family: 'Open Sans', verdana, arial, sans-serif; font-size: 12px; fill: rgb(68, 68, 68); fill-opacity: 1; white-space: pre;">0.5</text></g><g class="ytick"><text text-anchor="end" x="59" y="4.199999999999999" transform="translate(0,262.65)" style="font-family: 'Open Sans', verdana, arial, sans-serif; font-size: 12px; fill: rgb(68, 68, 68); fill-opacity: 1; white-space: pre;">1</text></g><g class="ytick"><text text-anchor="end" x="59" y="4.199999999999999" transform="translate(0,206.82)" style="font-family: 'Open Sans', verdana, arial, sans-serif; font-size: 12px; fill: rgb(68, 68, 68); fill-opacity: 1; white-space: pre;">1.5</text></g><g class="ytick"><text text-anchor="end" x="59" y="4.199999999999999" transform="translate(0,150.98000000000002)" style="font-family: 'Open Sans', verdana, arial, sans-serif; font-size: 12px; fill: rgb(68, 68, 68); fill-opacity: 1; white-space: pre;">2</text></g><g class="ytick"><text text-anchor="end" x="59" y="4.199999999999999" transform="translate(0,95.15)" style="font-family: 'Open Sans', verdana, arial, sans-serif; font-size: 12px; fill: rgb(68, 68, 68); fill-opacity: 1; white-space: pre;">2.5</text></g></g><g class="overaxes-above"/></g></g><g class="polarlayer"/><g class="ternarylayer"/><g class="geolayer"/><g class="funnelarealayer"/><g class="pielayer"/><g class="treemaplayer"/><g class="sunburstlayer"/><g class="glimages"/><defs id="topdefs-23e313"><g class="clips"/><clipPath id="legend23e313"><rect width="101" height="67" x="0" y="0"/></clipPath></defs><g class="layer-above"><g class="imagelayer"/><g class="shapelayer"/></g><g class="infolayer"><g class="legend" pointer-events="all" transform="translate(587.34, 60)"><rect class="bg" shape-rendering="crispEdges" width="101" height="67" x="0" y="0" style="stroke: rgb(68, 68, 68); stroke-opacity: 1; fill: rgb(255, 255, 255); fill-opacity: 1; stroke-width: 0px;"/><g class="scrollbox" transform="translate(0, 0)" clip-path="url('#legend23e313')"><g class="groups"><g class="traces" transform="translate(0, 14.5)" style="opacity: 1;"><text class="legendtext" text-anchor="start" x="40" y="4.680000000000001" style="font-family: 'Open Sans', verdana, arial, sans-serif; font-size: 12px; fill: rgb(68, 68, 68); fill-opacity: 1; white-space: pre;">train loss</text><g class="layers" style="opacity: 1;"><g class="legendfill"/><g class="legendlines"><path class="js-line" d="M5,0h30" style="fill: none; stroke: rgb(31, 119, 180); stroke-opacity: 1; stroke-width: 2px;"/></g><g class="legendsymbols"><g class="legendpoints"/></g></g><rect class="legendtoggle" pointer-events="all" x="0" y="-9.5" width="95.78125" height="19" style="cursor: pointer; fill: rgb(0, 0, 0); fill-opacity: 0;"/></g><g class="traces" transform="translate(0, 33.5)" style="opacity: 1;"><text class="legendtext" text-anchor="start" x="40" y="4.680000000000001" style="font-family: 'Open Sans', verdana, arial, sans-serif; font-size: 12px; fill: rgb(68, 68, 68); fill-opacity: 1; white-space: pre;">test loss</text><g class="layers" style="opacity: 1;"><g class="legendfill"/><g class="legendlines"><path class="js-line" d="M5,0h30" style="fill: none; stroke: rgb(255, 127, 14); stroke-opacity: 1; stroke-width: 2px;"/></g><g class="legendsymbols"><g class="legendpoints"/></g></g><rect class="legendtoggle" pointer-events="all" x="0" y="-9.5" width="95.78125" height="19" style="cursor: pointer; fill: rgb(0, 0, 0); fill-opacity: 0;"/></g><g class="traces" transform="translate(0, 52.5)" style="opacity: 1;"><text class="legendtext" text-anchor="start" x="40" y="4.680000000000001" style="font-family: 'Open Sans', verdana, arial, sans-serif; font-size: 12px; fill: rgb(68, 68, 68); fill-opacity: 1; white-space: pre;">acc</text><g class="layers" style="opacity: 1;"><g class="legendfill"/><g class="legendlines"><path class="js-line" d="M5,0h30" style="fill: none; stroke: rgb(44, 160, 44); stroke-opacity: 1; stroke-width: 2px;"/></g><g class="legendsymbols"><g class="legendpoints"/></g></g><rect class="legendtoggle" pointer-events="all" x="0" y="-9.5" width="95.78125" height="19" style="cursor: pointer; fill: rgb(0, 0, 0); fill-opacity: 0;"/></g></g></g><rect class="scrollbar" rx="20" ry="3" width="0" height="0" x="0" y="0" style="fill: rgb(128, 139, 164); fill-opacity: 1;"/></g><g class="g-gtitle"><text class="gtitle" x="350" y="30" text-anchor="middle" dy="0em" style="font-family: 'Open Sans', verdana, arial, sans-serif; font-size: 17px; fill: rgb(68, 68, 68); opacity: 1; font-weight: normal; white-space: pre;">SAMPLE+PER_CLASS_10</text></g><g class="g-xtitle"/><g class="g-ytitle"/></g></svg>