<svg class="main-svg" xmlns="http://www.w3.org/2000/svg" xmlns:xlink="http://www.w3.org/1999/xlink" width="700" height="450" style="" viewBox="0 0 700 450"><rect x="0" y="0" width="700" height="450" style="fill: rgb(255, 255, 255); fill-opacity: 1;"/><defs id="defs-4f1652"><g class="clips"><clipPath id="clip4f1652xyplot" class="plotclip"><rect width="517" height="330"/></clipPath><clipPath class="axesclip" id="clip4f1652x"><rect x="60" y="0" width="517" height="450"/></clipPath><clipPath class="axesclip" id="clip4f1652y"><rect x="0" y="60" width="700" height="330"/></clipPath><clipPath class="axesclip" id="clip4f1652xy"><rect x="60" y="60" width="517" height="330"/></clipPath></g><g class="gradients"/></defs><g class="bglayer"/><g class="layer-below"><g class="imagelayer"/><g class="shapelayer"/></g><g class="cartesianlayer"><g class="subplot xy"><g class="layer-subplot"><g class="shapelayer"/><g class="imagelayer"/></g><g class="gridlayer"><g class="x"><path class="xgrid crisp" transform="translate(189.9,0)" d="M0,60v330" style="stroke: rgb(238, 238, 238); stroke-opacity: 1; stroke-width: 1px;"/><path class="xgrid crisp" transform="translate(319.8,0)" d="M0,60v330" style="stroke: rgb(238, 238, 238); stroke-opacity: 1; stroke-width: 1px;"/><path class="xgrid crisp" transform="translate(449.7,0)" d="M0,60v330" style="stroke: rgb(238, 238, 238); stroke-opacity: 1; stroke-width: 1px;"/></g><g class="y"><path class="ygrid crisp" transform="translate(0,339.65)" d="M60,0h517" style="stroke: rgb(238, 238, 238); stroke-opacity: 1; stroke-width: 1px;"/><path class="ygrid crisp" transform="translate(0,303.52)" d="M60,0h517" style="stroke: rgb(238, 238, 238); stroke-opacity: 1; stroke-width: 1px;"/><path class="ygrid crisp" transform="translate(0,267.4)" d="M60,0h517" style="stroke: rgb(238, 238, 238); stroke-opacity: 1; stroke-width: 1px;"/><path class="ygrid crisp" transform="translate(0,231.27)" d="M60,0h517" style="stroke: rgb(238, 238, 238); stroke-opacity: 1; stroke-width: 1px;"/><path class="ygrid crisp" transform="translate(0,195.14)" d="M60,0h517" style="stroke: rgb(238, 238, 238); stroke-opacity: 1; stroke-width: 1px;"/><path class="ygrid crisp" transform="translate(0,159.01)" d="M60,0h517" style="stroke: rgb(238, 238, 238); stroke-opacity: 1; stroke-width: 1px;"/><path class="ygrid crisp" transform="translate(0,122.88)" d="M60,0h517" style="stroke: rgb(238, 238, 238); stroke-opacity: 1; stroke-width: 1px;"/><path class="ygrid crisp" transform="translate(0,86.75)" d="M60,0h517" style="stroke: rgb(238, 238, 238); stroke-opacity: 1; stroke-width: 1px;"/></g></g><g class="zerolinelayer"><path class="xzl zl crisp" transform="translate(60,0)" d="M0,60v330" style="stroke: rgb(68, 68, 68); stroke-opacity: 1; stroke-width: 1px;"/><path class="yzl zl crisp" transform="translate(0,375.78)" d="M60,0h517" style="stroke: rgb(68, 68, 68); stroke-opacity: 1; stroke-width: 1px;"/></g><path class="xlines-below"/><path class="ylines-below"/><g class="overlines-below"/><g class="xaxislayer-below"/><g class="yaxislayer-below"/><g class="overaxes-below"/><g class="plot" transform="translate(60, 60)" clip-path="url('#clip4f1652xyplot')"><g class="scatterlayer mlayer"><g class="trace scatter trace1f8072" style="stroke-miterlimit: 2; opacity: 1;"><g class="fills"/><g class="errorbars"/><g class="lines"><path class="js-line" d="M0,16.5L2.6,139.48L5.2,160.87L7.79,186.09L10.39,191.97L12.99,199.51L15.59,209.84L18.19,221.46L20.78,228.15L23.38,228.14L25.98,242.13L28.58,248.06L31.18,247.13L33.77,252.55L36.37,256.16L38.97,257.59L41.57,259.93L44.17,260.33L46.76,263.56L49.36,262.96L51.96,273.04L54.56,275.86L57.16,275.55L59.75,276.91L62.35,279.14L64.95,269.68L67.55,272.17L70.15,277.78L72.74,278.18L75.34,283.11L77.94,286.43L80.54,283.99L83.14,286.28L85.73,291.27L88.33,290.76L93.53,287.23L96.13,292.53L98.72,291.54L101.32,289.45L106.52,296.97L109.12,296.72L111.71,297.19L114.31,295.99L119.51,297.78L122.11,298.11L124.7,297.11L127.3,297.9L129.9,300.63L132.5,301.44L135.1,302.89L137.69,301.07L140.29,300.73L142.89,302.39L145.49,303.37L148.09,302.63L150.68,302.09L153.28,299.66L158.48,305.23L161.08,304.7L163.67,306.04L166.27,305.41L171.47,305.69L174.07,306.52L179.26,305.54L181.86,306.82L187.06,305.68L189.65,307.51L197.45,305.23L200.05,307.36L207.84,307.78L210.44,308.22L213.04,309.37L215.63,309.13L220.83,308.94L223.43,308.52L228.62,309.18L231.22,310.01L233.82,309.38L236.42,309.62L241.61,310.43L244.21,309.59L259.8,310.79L262.4,311.25L270.19,310.81L272.79,310.69L275.39,310.01L277.98,311.27L280.58,310.53L283.18,310.95L288.38,311.53L290.97,311.73L293.57,312.18L296.17,311.85L303.96,311.33L306.56,312.15L311.76,311.85L314.36,312.01L324.75,310.98L327.35,312.43L332.54,312.35L335.14,312.08L340.34,312.7L342.93,312.02L350.73,312.92L353.33,311.38L358.52,312.6L361.12,312.31L363.72,312.89L366.32,312.29L368.91,312.85L371.51,311.88L389.7,312.91L392.3,312.07L397.49,312.85L400.09,313.03L402.69,312.61L405.29,313.07L407.88,312.18L410.48,312.28L415.68,312.89L418.28,312.5L420.87,312.29L423.47,313.14L428.67,312.83L431.27,313.2L433.86,313.35L436.46,312.29L439.06,313.43L441.66,313.1L462.44,313.06L465.04,313.24L470.24,313.46L472.83,312.71L488.42,313.4L491.02,313.44L496.22,313.07L498.81,313.32L504.01,313.15L506.61,313.36L514.4,313.3L517,313.05" style="vector-effect: non-scaling-stroke; fill: none; stroke: rgb(31, 119, 180); stroke-opacity: 1; stroke-width: 2px; opacity: 1;"/></g><g class="points"/><g class="text"/></g><g class="trace scatter trace96a6eb" style="stroke-miterlimit: 2; opacity: 1;"><g class="fills"/><g class="errorbars"/><g class="lines"><path class="js-line" d="M0,81.17L5.2,113.93L7.79,135.45L10.39,145.64L12.99,177.72L15.59,186.19L18.19,183.1L20.78,176.83L23.38,188.36L25.98,195.24L28.58,189.2L31.18,194.97L33.77,198.02L36.37,185.41L38.97,194.65L41.57,195.28L44.17,200.95L46.76,197.22L49.36,205.39L51.96,206.3L54.56,196.55L59.75,205L62.35,189.38L64.95,166.01L67.55,205.65L70.15,195.29L72.74,191.26L75.34,204.15L77.94,198.89L80.54,199.69L83.14,211.36L85.73,192.19L88.33,196.55L90.93,192.5L93.53,196.08L98.72,194.2L101.32,187.42L106.52,198.46L109.12,199.82L111.71,193.07L114.31,190.32L116.91,190.13L119.51,190.76L122.11,183.4L124.7,182.92L127.3,189.01L129.9,179.19L132.5,185.61L135.1,187.53L137.69,181.08L140.29,186.86L142.89,182.51L145.49,179.71L148.09,177.11L150.68,164.42L153.28,182.51L155.88,180.29L158.48,186.79L161.08,176.4L163.67,187.63L166.27,174.45L168.87,170.87L171.47,172.53L174.07,176.33L176.66,175.94L179.26,177.66L181.86,173.21L187.06,175.67L189.65,173.58L194.85,170.63L197.45,170.67L200.05,172.63L202.64,170.7L205.24,172.39L207.84,175.82L210.44,174.27L213.04,168.03L215.63,170.66L218.23,167.39L220.83,170.88L223.43,172.58L226.03,166.89L228.62,167.24L231.22,158.93L233.82,160.91L239.02,165.26L241.61,161.13L244.21,158.02L246.81,162.06L249.41,159.74L252.01,163.15L254.6,158.8L257.2,158.84L259.8,162.33L262.4,163.69L264.99,158.8L267.59,155.59L270.19,163.01L272.79,159.95L275.39,155.57L277.98,157.53L280.58,153.3L283.18,152.32L285.78,159.23L288.38,155.63L290.97,159.12L293.57,154.06L296.17,154.12L298.77,158.6L301.37,151.64L303.96,153.21L306.56,152.18L309.16,149.07L311.76,151.25L314.36,151.4L316.95,149.11L319.55,147.82L327.35,156.26L329.94,148.31L332.54,146.13L335.14,148.97L337.74,144.31L340.34,148.27L342.93,149.23L345.53,152.62L350.73,146.4L353.33,148.01L355.92,142.55L358.52,147.33L361.12,142.1L363.72,143.1L366.32,148.18L368.91,147.21L371.51,141.88L374.11,145.74L376.71,146.61L379.31,140.77L381.9,139.94L384.5,136.02L387.1,145.67L389.7,144.21L392.3,146.11L394.89,144.26L397.49,143.93L400.09,141.77L402.69,140.39L405.29,139.96L407.88,143.09L410.48,144.41L413.08,146.73L415.68,142.31L418.28,144.6L420.87,139.96L423.47,146.53L426.07,137.79L428.67,142.63L431.27,145.54L433.86,142.98L436.46,142.85L439.06,137.15L441.66,141.7L446.85,139.75L449.45,144.93L454.65,140.37L457.25,139.34L459.84,143.2L462.44,136.19L465.04,138.95L467.64,139.53L470.24,140.8L472.83,131.89L475.43,138.8L478.03,138.31L480.63,142.4L483.23,137.91L488.42,142.41L491.02,142L493.62,131.12L496.22,136.57L498.81,141.64L501.41,138.11L504.01,135.65L506.61,142.69L509.21,137.5L511.8,138.94L514.4,140.98L517,139.74" style="vector-effect: non-scaling-stroke; fill: none; stroke: rgb(255, 127, 14); stroke-opacity: 1; stroke-width: 2px; opacity: 1;"/></g><g class="points"/><g class="text"/></g><g class="trace scatter trace3ef0af" style="stroke-miterlimit: 2; opacity: 1;"><g class="fills"/><g class="errorbars"/><g class="lines"><path class="js-line" d="M0,230.42L2.6,207.62L5.2,212.54L7.79,201.46L10.39,195.48L12.99,184.66L15.59,182.63L18.19,183.88L20.78,183.91L25.98,175.65L28.58,178.49L31.18,177.32L33.77,174.47L36.37,178.01L38.97,173.59L41.57,175.32L44.17,171.21L46.76,172.51L49.36,172.01L51.96,168.72L54.56,171.19L57.16,170.97L59.75,168.18L62.35,171.82L64.95,170.89L67.55,169.1L70.15,170.71L72.74,172.16L75.34,168.02L77.94,168.66L80.54,167.72L83.14,165.5L85.73,169.02L88.33,167.83L90.93,168.3L98.72,168.4L101.32,170.13L109.12,165.31L111.71,167.39L114.31,167.4L116.91,166.64L122.11,168.82L124.7,169.93L127.3,167.31L129.9,169.17L132.5,167.28L135.1,166.89L137.69,168.04L140.29,165.79L142.89,167.57L145.49,167.48L148.09,167.28L150.68,167.95L153.28,166.98L155.88,167.26L158.48,165.72L161.08,166.54L163.67,165.14L166.27,166.71L168.87,167.89L171.47,167.02L174.07,165.74L176.66,166.1L179.26,165.98L181.86,166.8L184.46,165.69L187.06,166.48L192.25,165.99L194.85,166.39L202.64,166.45L205.24,165.82L207.84,165.22L210.44,165.55L215.63,165.85L218.23,166.12L228.62,165.82L231.22,166.79L241.61,165.86L244.21,166.8L246.81,165.51L249.41,166.02L252.01,165.65L254.6,166.31L259.8,165.39L262.4,165.55L267.59,165.94L270.19,165.55L275.39,166.43L277.98,165.63L283.18,167.01L285.78,165.7L309.16,165.85L311.76,165.51L316.95,166L319.55,165.8L327.35,165.21L329.94,166.51L335.14,165.66L337.74,166.3L345.53,165.32L348.13,165.67L353.33,165.82L355.92,166.09L358.52,165.58L361.12,165.91L381.9,165.95L384.5,166.37L389.7,165.84L392.3,165.62L402.69,166.18L405.29,166.54L407.88,165.51L410.48,165.36L423.47,165.35L426.07,166.27L431.27,165.29L433.86,165.54L444.26,165.82L446.85,165.66L449.45,165.28L452.05,165.74L478.03,166.02L480.63,165.53L488.42,165.77L491.02,165.69L493.62,166.12L496.22,165.54L517,165.58" style="vector-effect: non-scaling-stroke; fill: none; stroke: rgb(44, 160, 44); stroke-opacity: 1; stroke-width: 2px; opacity: 1;"/></g><g class="points"/><g class="text"/></g></g></g><g class="overplot"/><path class="xlines-above crisp" d="M0,0" style="fill: none;"/><path class="ylines-above crisp" d="M0,0" style="fill: none;"/><g class="overlines-above"/><g class="xaxislayer-above"><g class="xtick"><text text-anchor="middle" x="0" y="403" transform="translate(60,0)" style="font-family: 'Open Sans', verdana, arial, sans-serif; font-size: 12px; fill: rgb(68, 68, 68); fill-opacity: 1; white-space: pre;">0</text></g><g class="xtick"><text text-anchor="middle" x="0" y="403" transform="translate(189.9,0)" style="font-family: 'Open Sans', verdana, arial, sans-serif; font-size: 12px; fill: rgb(68, 68, 68); fill-opacity: 1; white-space: pre;">50</text></g><g class="xtick"><text text-anchor="middle" x="0" y="403" transform="translate(319.8,0)" style="font-family: 'Open Sans', verdana, arial, sans-serif; font-size: 12px; fill: rgb(68, 68, 68); fill-opacity: 1; white-space: pre;">100</text></g><g class="xtick"><text text-anchor="middle" x="0" y="403" transform="translate(449.7,0)" style="font-family: 'Open Sans', verdana, arial, sans-serif; font-size: 12px; fill: rgb(68, 68, 68); fill-opacity: 1; white-space: pre;">150</text></g></g><g class="yaxislayer-above"><g class="ytick"><text text-anchor="end" x="59" y="4.199999999999999" transform="translate(0,375.78)" style="font-family: 'Open Sans', verdana, arial, sans-serif; font-size: 12px; fill: rgb(68, 68, 68); fill-opacity: 1; white-space: pre;">0</text></g><g class="ytick"><text text-anchor="end" x="59" y="4.199999999999999" transform="translate(0,339.65)" style="font-family: 'Open Sans', verdana, arial, sans-serif; font-size: 12px; fill: rgb(68, 68, 68); fill-opacity: 1; white-space: pre;">0.2</text></g><g class="ytick"><text text-anchor="end" x="59" y="4.199999999999999" transform="translate(0,303.52)" style="font-family: 'Open Sans', verdana, arial, sans-serif; font-size: 12px; fill: rgb(68, 68, 68); fill-opacity: 1; white-space: pre;">0.4</text></g><g class="ytick"><text text-anchor="end" x="59" y="4.199999999999999" transform="translate(0,267.4)" style="font-family: 'Open Sans', verdana, arial, sans-serif; font-size: 12px; fill: rgb(68, 68, 68); fill-opacity: 1; white-space: pre;">0.6</text></g><g class="ytick"><text text-anchor="end" x="59" y="4.199999999999999" transform="translate(0,231.27)" style="font-family: 'Open Sans', verdana, arial, sans-serif; font-size: 12px; fill: rgb(68, 68, 68); fill-opacity: 1; white-space: pre;">0.8</text></g><g class="ytick"><text text-anchor="end" x="59" y="4.199999999999999" transform="translate(0,195.14)" style="font-family: 'Open Sans', verdana, arial, sans-serif; font-size: 12px; fill: rgb(68, 68, 68); fill-opacity: 1; white-space: pre;">1</text></g><g class="ytick"><text text-anchor="end" x="59" y="4.199999999999999" transform="translate(0,159.01)" style="font-family: 'Open Sans', verdana, arial, sans-serif; font-size: 12px; fill: rgb(68, 68, 68); fill-opacity: 1; white-space: pre;">1.2</text></g><g class="ytick"><text text-anchor="end" x="59" y="4.199999999999999" transform="translate(0,122.88)" style="font-family: 'Open Sans', verdana, arial, sans-serif; font-size: 12px; fill: rgb(68, 68, 68); fill-opacity: 1; white-space: pre;">1.4</text></g><g class="ytick"><text text-anchor="end" x="59" y="4.199999999999999" transform="translate(0,86.75)" style="font-family: 'Open Sans', verdana, arial, sans-serif; font-size: 12px; fill: rgb(68, 68, 68); fill-opacity: 1; white-space: pre;">1.6</text></g></g><g class="overaxes-above"/></g></g><g class="polarlayer"/><g class="ternarylayer"/><g class="geolayer"/><g class="funnelarealayer"/><g class="pielayer"/><g class="treemaplayer"/><g class="sunburstlayer"/><g class="glimages"/><defs id="topdefs-4f1652"><g class="clips"/><clipPath id="legend4f1652"><rect width="101" height="67" x="0" y="0"/></clipPath></defs><g class="layer-above"><g class="imagelayer"/><g class="shapelayer"/></g><g class="infolayer"><g class="legend" pointer-events="all" transform="translate(587.34, 60)"><rect class="bg" shape-rendering="crispEdges" width="101" height="67" x="0" y="0" style="stroke: rgb(68, 68, 68); stroke-opacity: 1; fill: rgb(255, 255, 255); fill-opacity: 1; stroke-width: 0px;"/><g class="scrollbox" transform="translate(0, 0)" clip-path="url('#legend4f1652')"><g class="groups"><g class="traces" transform="translate(0, 14.5)" style="opacity: 1;"><text class="legendtext" text-anchor="start" x="40" y="4.680000000000001" style="font-family: 'Open Sans', verdana, arial, sans-serif; font-size: 12px; fill: rgb(68, 68, 68); fill-opacity: 1; white-space: pre;">train loss</text><g class="layers" style="opacity: 1;"><g class="legendfill"/><g class="legendlines"><path class="js-line" d="M5,0h30" style="fill: none; stroke: rgb(31, 119, 180); stroke-opacity: 1; stroke-width: 2px;"/></g><g class="legendsymbols"><g class="legendpoints"/></g></g><rect class="legendtoggle" pointer-events="all" x="0" y="-9.5" width="95.78125" height="19" style="cursor: pointer; fill: rgb(0, 0, 0); fill-opacity: 0;"/></g><g class="traces" transform="translate(0, 33.5)" style="opacity: 1;"><text class="legendtext" text-anchor="start" x="40" y="4.680000000000001" style="font-family: 'Open Sans', verdana, arial, sans-serif; font-size: 12px; fill: rgb(68, 68, 68); fill-opacity: 1; white-space: pre;">test loss</text><g class="layers" style="opacity: 1;"><g class="legendfill"/><g class="legendlines"><path class="js-line" d="M5,0h30" style="fill: none; stroke: rgb(255, 127, 14); stroke-opacity: 1; stroke-width: 2px;"/></g><g class="legendsymbols"><g class="legendpoints"/></g></g><rect class="legendtoggle" pointer-events="all" x="0" y="-9.5" width="95.78125" height="19" style="cursor: pointer; fill: rgb(0, 0, 0); fill-opacity: 0;"/></g><g class="traces" transform="translate(0, 52.5)" style="opacity: 1;"><text class="legendtext" text-anchor="start" x="40" y="4.680000000000001" style="font-family: 'Open Sans', verdana, arial, sans-serif; font-size: 12px; fill: rgb(68, 68, 68); fill-opacity: 1; white-space: pre;">acc</text><g class="layers" style="opacity: 1;"><g class="legendfill"/><g class="legendlines"><path class="js-line" d="M5,0h30" style="fill: none; stroke: rgb(44, 160, 44); stroke-opacity: 1; stroke-width: 2px;"/></g><g class="legendsymbols"><g class="legendpoints"/></g></g><rect class="legendtoggle" pointer-events="all" x="0" y="-9.5" width="95.78125" height="19" style="cursor: pointer; fill: rgb(0, 0, 0); fill-opacity: 0;"/></g></g></g><rect class="scrollbar" rx="20" ry="3" width="0" height="0" x="0" y="0" style="fill: rgb(128, 139, 164); fill-opacity: 1;"/></g><g class="g-gtitle"><text class="gtitle" x="350" y="30" text-anchor="middle" dy="0em" style="font-family: 'Open Sans', verdana, arial, sans-serif; font-size: 17px; fill: rgb(68, 68, 68); opacity: 1; font-weight: normal; white-space: pre;">SAMPLE+PER_CLASS_50</text></g><g class="g-xtitle"/><g class="g-ytitle"/></g></svg>