<svg class="main-svg" xmlns="http://www.w3.org/2000/svg" xmlns:xlink="http://www.w3.org/1999/xlink" width="700" height="450" style="" viewBox="0 0 700 450"><rect x="0" y="0" width="700" height="450" style="fill: rgb(255, 255, 255); fill-opacity: 1;"/><defs id="defs-67f99f"><g class="clips"><clipPath id="clip67f99fxyplot" class="plotclip"><rect width="517" height="330"/></clipPath><clipPath class="axesclip" id="clip67f99fx"><rect x="60" y="0" width="517" height="450"/></clipPath><clipPath class="axesclip" id="clip67f99fy"><rect x="0" y="60" width="700" height="330"/></clipPath><clipPath class="axesclip" id="clip67f99fxy"><rect x="60" y="60" width="517" height="330"/></clipPath></g><g class="gradients"/></defs><g class="bglayer"/><g class="layer-below"><g class="imagelayer"/><g class="shapelayer"/></g><g class="cartesianlayer"><g class="subplot xy"><g class="layer-subplot"><g class="shapelayer"/><g class="imagelayer"/></g><g class="gridlayer"><g class="x"><path class="xgrid crisp" transform="translate(189.9,0)" d="M0,60v330" style="stroke: rgb(238, 238, 238); stroke-opacity: 1; stroke-width: 1px;"/><path class="xgrid crisp" transform="translate(319.8,0)" d="M0,60v330" style="stroke: rgb(238, 238, 238); stroke-opacity: 1; stroke-width: 1px;"/><path class="xgrid crisp" transform="translate(449.7,0)" d="M0,60v330" style="stroke: rgb(238, 238, 238); stroke-opacity: 1; stroke-width: 1px;"/></g><g class="y"><path class="ygrid crisp" transform="translate(0,332.93)" d="M60,0h517" style="stroke: rgb(238, 238, 238); stroke-opacity: 1; stroke-width: 1px;"/><path class="ygrid crisp" transform="translate(0,286.40999999999997)" d="M60,0h517" style="stroke: rgb(238, 238, 238); stroke-opacity: 1; stroke-width: 1px;"/><path class="ygrid crisp" transform="translate(0,239.89)" d="M60,0h517" style="stroke: rgb(238, 238, 238); stroke-opacity: 1; stroke-width: 1px;"/><path class="ygrid crisp" transform="translate(0,193.37)" d="M60,0h517" style="stroke: rgb(238, 238, 238); stroke-opacity: 1; stroke-width: 1px;"/><path class="ygrid crisp" transform="translate(0,146.85)" d="M60,0h517" style="stroke: rgb(238, 238, 238); stroke-opacity: 1; stroke-width: 1px;"/><path class="ygrid crisp" transform="translate(0,100.33)" d="M60,0h517" style="stroke: rgb(238, 238, 238); stroke-opacity: 1; stroke-width: 1px;"/></g></g><g class="zerolinelayer"><path class="xzl zl crisp" transform="translate(60,0)" d="M0,60v330" style="stroke: rgb(68, 68, 68); stroke-opacity: 1; stroke-width: 1px;"/><path class="yzl zl crisp" transform="translate(0,379.45)" d="M60,0h517" style="stroke: rgb(68, 68, 68); stroke-opacity: 1; stroke-width: 1px;"/></g><path class="xlines-below"/><path class="ylines-below"/><g class="overlines-below"/><g class="xaxislayer-below"/><g class="yaxislayer-below"/><g class="overaxes-below"/><g class="plot" transform="translate(60, 60)" clip-path="url('#clip67f99fxyplot')"><g class="scatterlayer mlayer"><g class="trace scatter traceee62c0" style="stroke-miterlimit: 2; opacity: 1;"><g class="fills"/><g class="errorbars"/><g class="lines"><path class="js-line" d="M0,16.5L2.6,136.98L5.2,165.6L12.99,209.56L15.59,213.55L20.78,226.35L23.38,231.3L25.98,240.96L28.58,246.72L33.77,244.07L36.37,253.06L38.97,256.68L41.57,245.51L46.76,263.64L49.36,265.99L51.96,268.73L54.56,269.65L57.16,272.3L59.75,273.47L62.35,273.58L64.95,272.63L67.55,275.04L70.15,276.34L72.74,274.58L75.34,276.8L77.94,283.53L80.54,283.23L88.33,283.94L90.93,281.27L93.53,286.79L96.13,287.39L101.32,287.48L103.92,292.82L109.12,290.62L111.71,289.71L114.31,292.43L116.91,291.93L119.51,292.13L122.11,290.71L124.7,293.52L127.3,292.31L129.9,295.76L132.5,297.4L135.1,298.06L137.69,296.71L140.29,297.48L142.89,297.32L145.49,297.71L148.09,296.32L150.68,297.74L153.28,297.66L155.88,296.88L158.48,300.91L161.08,301.14L163.67,298.96L166.27,299.94L168.87,299.89L171.47,301.86L174.07,301.92L179.26,301.6L181.86,302.23L184.46,303.26L187.06,302.7L192.25,304.71L194.85,304.73L200.05,304.41L202.64,305.85L205.24,305L207.84,305.68L210.44,304.85L213.04,305.09L215.63,306L218.23,305.81L220.83,306.31L223.43,304.82L226.03,305.61L228.62,304.87L231.22,307.86L233.82,306.74L236.42,307.81L239.02,307.8L244.21,307.38L246.81,308.75L249.41,307.31L252.01,308.06L254.6,308.44L257.2,307.73L259.8,307.06L262.4,308.92L275.39,308.47L277.98,309.11L285.78,309.1L288.38,310.29L290.97,308.68L293.57,309.62L296.17,310.04L298.77,309.54L306.56,310.09L309.16,309.37L314.36,311.02L316.95,310.61L329.94,311.28L332.54,310.83L335.14,311.28L337.74,310.47L340.34,311.29L342.93,310.84L348.13,311.2L350.73,310.86L353.33,311.48L355.92,311.07L366.32,311.33L368.91,310.83L371.51,310.06L374.11,311.82L381.9,311.35L384.5,312.36L389.7,312.55L392.3,311.14L402.69,312.58L405.29,311.97L410.48,312.04L413.08,311.83L426.07,312.83L428.67,311.42L433.86,312.82L436.46,311.94L444.26,312.95L446.85,312.43L452.05,313.24L454.65,312.02L457.25,312.86L459.84,312.14L462.44,311.62L465.04,312.96L467.64,313.26L470.24,312.13L475.43,312.73L478.03,312.23L480.63,312.03L483.23,312.62L485.82,312.17L488.42,313.37L498.81,313.13L501.41,312.44L504.01,312.81L506.61,312.16L509.21,312.91L511.8,312.71L514.4,311.76L517,313.26" style="vector-effect: non-scaling-stroke; fill: none; stroke: rgb(31, 119, 180); stroke-opacity: 1; stroke-width: 2px; opacity: 1;"/></g><g class="points"/><g class="text"/></g><g class="trace scatter traceff3de7" style="stroke-miterlimit: 2; opacity: 1;"><g class="fills"/><g class="errorbars"/><g class="lines"><path class="js-line" d="M0,60.35L2.6,132.62L5.2,154.31L7.79,171.23L10.39,165.31L12.99,158.32L15.59,193.03L18.19,177.51L20.78,181.17L23.38,182.36L25.98,211.38L28.58,194.2L31.18,213.8L33.77,200.86L36.37,200.61L38.97,213.24L41.57,196.26L44.17,214.15L46.76,214.01L49.36,204.99L51.96,222.51L54.56,220.25L57.16,210.27L59.75,210.87L62.35,201.98L64.95,208.17L67.55,207.07L72.74,214.41L75.34,222.92L77.94,215.28L80.54,222.11L83.14,217.35L85.73,214.4L88.33,208.8L90.93,223.96L96.13,222.54L98.72,220.76L101.32,219.07L103.92,214.62L106.52,222.15L109.12,213.64L111.71,217.25L114.31,214.81L116.91,223.12L119.51,217.26L122.11,216.03L124.7,217.9L127.3,198.62L129.9,215.69L132.5,215.39L135.1,217.4L137.69,219.97L140.29,219.29L142.89,217.78L145.49,223.72L148.09,215.92L150.68,211.63L153.28,211.28L155.88,215.08L158.48,218.06L161.08,211.13L163.67,212.32L166.27,215.67L168.87,213.62L171.47,213.93L174.07,211.19L176.66,213.85L181.86,208.02L184.46,214.45L187.06,213.57L189.65,214.57L192.25,218.42L194.85,210L197.45,204.8L200.05,210.41L202.64,204.84L205.24,204.68L207.84,210.26L210.44,204.18L213.04,212.1L215.63,206.38L218.23,205.27L220.83,212.23L223.43,200.35L226.03,206.95L228.62,207.36L231.22,211.91L233.82,208.36L236.42,207.78L239.02,209.7L241.61,203.42L244.21,209.95L246.81,209.73L249.41,201.9L252.01,206.74L254.6,199.82L257.2,202.71L262.4,207.14L264.99,204.22L267.59,207.23L270.19,205.61L272.79,199.51L275.39,202.07L277.98,200.14L280.58,202.51L283.18,200.17L285.78,203.86L290.97,195.89L293.57,204.39L296.17,201.33L298.77,201.02L303.96,197.04L306.56,202.03L309.16,200.78L311.76,198.58L314.36,197.72L316.95,198.83L319.55,203.41L322.15,198.33L324.75,199.8L327.35,199.48L329.94,199.91L332.54,198.33L335.14,199.33L337.74,198.88L342.93,198.65L345.53,194L348.13,196.33L350.73,196.38L353.33,196.57L355.92,195.54L358.52,192.02L361.12,199.02L363.72,198.9L366.32,197.72L368.91,196.77L371.51,193.22L376.71,197.43L379.31,194.99L381.9,191.89L384.5,196.56L387.1,195.13L389.7,199.94L392.3,196.71L394.89,198.71L397.49,192.6L400.09,194.48L402.69,197.36L405.29,189.48L407.88,194.78L410.48,191.32L413.08,197L415.68,197.54L418.28,195.15L420.87,195.82L423.47,198.97L426.07,194.54L428.67,194.21L431.27,194.88L433.86,198.31L436.46,196.66L439.06,194.57L441.66,196.7L444.26,190.07L446.85,190.92L454.65,191.46L457.25,193.47L459.84,192.2L462.44,191.98L467.64,194.87L470.24,191.44L472.83,193.35L475.43,191.34L478.03,193.69L480.63,193.05L483.23,192.76L485.82,193.44L488.42,190.35L491.02,191.46L493.62,190.7L496.22,191.52L498.81,193.55L501.41,191.3L504.01,191.37L506.61,192.27L509.21,190.66L511.8,192.99L517,194.11" style="vector-effect: non-scaling-stroke; fill: none; stroke: rgb(255, 127, 14); stroke-opacity: 1; stroke-width: 2px; opacity: 1;"/></g><g class="points"/><g class="text"/></g><g class="trace scatter trace9c07a3" style="stroke-miterlimit: 2; opacity: 1;"><g class="fills"/><g class="errorbars"/><g class="lines"><path class="js-line" d="M0,198.38L2.6,163.7L5.2,150.07L7.79,142.71L10.39,147.65L12.99,146.4L15.59,134.16L18.19,143.38L20.78,140.57L23.38,139.43L25.98,126.87L28.58,134.46L31.18,126.36L36.37,131.83L38.97,124.83L41.57,130.64L44.17,123.91L46.76,125.78L49.36,129.93L51.96,120.74L54.56,121.64L57.16,127.14L59.75,125.5L62.35,127.32L64.95,126.22L67.55,127.29L70.15,124.26L72.74,123.41L75.34,119.9L77.94,122.45L80.54,118.73L83.14,119.5L85.73,121.13L88.33,122.34L90.93,117.72L96.13,116.96L98.72,119.53L101.32,118.93L103.92,119.98L106.52,117.47L109.12,119.46L111.71,118.03L114.31,118.52L116.91,117.22L119.51,117.95L122.11,118.05L124.7,117.02L127.3,122.65L129.9,118.64L132.5,118.99L135.1,117.68L137.69,116.62L140.29,117.64L142.89,117.1L145.49,114.68L150.68,117.65L153.28,117.76L158.48,115.56L161.08,117.21L166.27,116.11L168.87,116.94L171.47,115.96L174.07,116.41L181.86,117.16L184.46,115.51L187.06,116.15L189.65,115.84L192.25,114.52L194.85,116.85L197.45,117.68L200.05,116.4L205.24,117.17L207.84,115.58L210.44,116.75L213.04,114.82L215.63,116.67L218.23,116.21L220.83,115.1L223.43,116.99L226.03,115.92L228.62,115.91L231.22,114.76L233.82,115.49L239.02,115.28L241.61,116.2L244.21,114.59L246.81,114.84L249.41,115.95L252.01,115.34L254.6,117.31L257.2,115.81L270.19,115.22L272.79,116.36L277.98,116.32L280.58,115.26L283.18,116.53L285.78,115.4L290.97,116.47L293.57,115.51L303.96,116.05L306.56,115.03L316.95,116.06L319.55,115.15L324.75,115.82L327.35,115.74L332.54,115.06L335.14,115.74L342.93,115.2L345.53,116.54L348.13,115.85L350.73,115.96L358.52,116.02L361.12,114.91L374.11,115.59L376.71,115.14L384.5,115.65L387.1,115.36L389.7,115.05L392.3,115.57L394.89,115.04L397.49,115.9L402.69,114.9L405.29,116.44L407.88,115.58L410.48,115.74L415.68,114.94L418.28,115.51L423.47,114.85L426.07,115.52L441.66,114.81L444.26,115.64L452.05,115.72L454.65,115.48L457.25,115.15L459.84,115.61L480.63,115.73L483.23,115.43L517,114.91" style="vector-effect: non-scaling-stroke; fill: none; stroke: rgb(44, 160, 44); stroke-opacity: 1; stroke-width: 2px; opacity: 1;"/></g><g class="points"/><g class="text"/></g></g></g><g class="overplot"/><path class="xlines-above crisp" d="M0,0" style="fill: none;"/><path class="ylines-above crisp" d="M0,0" style="fill: none;"/><g class="overlines-above"/><g class="xaxislayer-above"><g class="xtick"><text text-anchor="middle" x="0" y="403" transform="translate(60,0)" style="font-family: 'Open Sans', verdana, arial, sans-serif; font-size: 12px; fill: rgb(68, 68, 68); fill-opacity: 1; white-space: pre;">0</text></g><g class="xtick"><text text-anchor="middle" x="0" y="403" transform="translate(189.9,0)" style="font-family: 'Open Sans', verdana, arial, sans-serif; font-size: 12px; fill: rgb(68, 68, 68); fill-opacity: 1; white-space: pre;">50</text></g><g class="xtick"><text text-anchor="middle" x="0" y="403" transform="translate(319.8,0)" style="font-family: 'Open Sans', verdana, arial, sans-serif; font-size: 12px; fill: rgb(68, 68, 68); fill-opacity: 1; white-space: pre;">100</text></g><g class="xtick"><text text-anchor="middle" x="0" y="403" transform="translate(449.7,0)" style="font-family: 'Open Sans', verdana, arial, sans-serif; font-size: 12px; fill: rgb(68, 68, 68); fill-opacity: 1; white-space: pre;">150</text></g></g><g class="yaxislayer-above"><g class="ytick"><text text-anchor="end" x="59" y="4.199999999999999" transform="translate(0,379.45)" style="font-family: 'Open Sans', verdana, arial, sans-serif; font-size: 12px; fill: rgb(68, 68, 68); fill-opacity: 1; white-space: pre;">0</text></g><g class="ytick"><text text-anchor="end" x="59" y="4.199999999999999" transform="translate(0,332.93)" style="font-family: 'Open Sans', verdana, arial, sans-serif; font-size: 12px; fill: rgb(68, 68, 68); fill-opacity: 1; white-space: pre;">0.2</text></g><g class="ytick"><text text-anchor="end" x="59" y="4.199999999999999" transform="translate(0,286.40999999999997)" style="font-family: 'Open Sans', verdana, arial, sans-serif; font-size: 12px; fill: rgb(68, 68, 68); fill-opacity: 1; white-space: pre;">0.4</text></g><g class="ytick"><text text-anchor="end" x="59" y="4.199999999999999" transform="translate(0,239.89)" style="font-family: 'Open Sans', verdana, arial, sans-serif; font-size: 12px; fill: rgb(68, 68, 68); fill-opacity: 1; white-space: pre;">0.6</text></g><g class="ytick"><text text-anchor="end" x="59" y="4.199999999999999" transform="translate(0,193.37)" style="font-family: 'Open Sans', verdana, arial, sans-serif; font-size: 12px; fill: rgb(68, 68, 68); fill-opacity: 1; white-space: pre;">0.8</text></g><g class="ytick"><text text-anchor="end" x="59" y="4.199999999999999" transform="translate(0,146.85)" style="font-family: 'Open Sans', verdana, arial, sans-serif; font-size: 12px; fill: rgb(68, 68, 68); fill-opacity: 1; white-space: pre;">1</text></g><g class="ytick"><text text-anchor="end" x="59" y="4.199999999999999" transform="translate(0,100.33)" style="font-family: 'Open Sans', verdana, arial, sans-serif; font-size: 12px; fill: rgb(68, 68, 68); fill-opacity: 1; white-space: pre;">1.2</text></g></g><g class="overaxes-above"/></g></g><g class="polarlayer"/><g class="ternarylayer"/><g class="geolayer"/><g class="funnelarealayer"/><g class="pielayer"/><g class="treemaplayer"/><g class="sunburstlayer"/><g class="glimages"/><defs id="topdefs-67f99f"><g class="clips"/><clipPath id="legend67f99f"><rect width="101" height="67" x="0" y="0"/></clipPath></defs><g class="layer-above"><g class="imagelayer"/><g class="shapelayer"/></g><g class="infolayer"><g class="legend" pointer-events="all" transform="translate(587.34, 60)"><rect class="bg" shape-rendering="crispEdges" width="101" height="67" x="0" y="0" style="stroke: rgb(68, 68, 68); stroke-opacity: 1; fill: rgb(255, 255, 255); fill-opacity: 1; stroke-width: 0px;"/><g class="scrollbox" transform="translate(0, 0)" clip-path="url('#legend67f99f')"><g class="groups"><g class="traces" transform="translate(0, 14.5)" style="opacity: 1;"><text class="legendtext" text-anchor="start" x="40" y="4.680000000000001" style="font-family: 'Open Sans', verdana, arial, sans-serif; font-size: 12px; fill: rgb(68, 68, 68); fill-opacity: 1; white-space: pre;">train loss</text><g class="layers" style="opacity: 1;"><g class="legendfill"/><g class="legendlines"><path class="js-line" d="M5,0h30" style="fill: none; stroke: rgb(31, 119, 180); stroke-opacity: 1; stroke-width: 2px;"/></g><g class="legendsymbols"><g class="legendpoints"/></g></g><rect class="legendtoggle" pointer-events="all" x="0" y="-9.5" width="95.78125" height="19" style="cursor: pointer; fill: rgb(0, 0, 0); fill-opacity: 0;"/></g><g class="traces" transform="translate(0, 33.5)" style="opacity: 1;"><text class="legendtext" text-anchor="start" x="40" y="4.680000000000001" style="font-family: 'Open Sans', verdana, arial, sans-serif; font-size: 12px; fill: rgb(68, 68, 68); fill-opacity: 1; white-space: pre;">test loss</text><g class="layers" style="opacity: 1;"><g class="legendfill"/><g class="legendlines"><path class="js-line" d="M5,0h30" style="fill: none; stroke: rgb(255, 127, 14); stroke-opacity: 1; stroke-width: 2px;"/></g><g class="legendsymbols"><g class="legendpoints"/></g></g><rect class="legendtoggle" pointer-events="all" x="0" y="-9.5" width="95.78125" height="19" style="cursor: pointer; fill: rgb(0, 0, 0); fill-opacity: 0;"/></g><g class="traces" transform="translate(0, 52.5)" style="opacity: 1;"><text class="legendtext" text-anchor="start" x="40" y="4.680000000000001" style="font-family: 'Open Sans', verdana, arial, sans-serif; font-size: 12px; fill: rgb(68, 68, 68); fill-opacity: 1; white-space: pre;">acc</text><g class="layers" style="opacity: 1;"><g class="legendfill"/><g class="legendlines"><path class="js-line" d="M5,0h30" style="fill: none; stroke: rgb(44, 160, 44); stroke-opacity: 1; stroke-width: 2px;"/></g><g class="legendsymbols"><g class="legendpoints"/></g></g><rect class="legendtoggle" pointer-events="all" x="0" y="-9.5" width="95.78125" height="19" style="cursor: pointer; fill: rgb(0, 0, 0); fill-opacity: 0;"/></g></g></g><rect class="scrollbar" rx="20" ry="3" width="0" height="0" x="0" y="0" style="fill: rgb(128, 139, 164); fill-opacity: 1;"/></g><g class="g-gtitle"><text class="gtitle" x="350" y="30" text-anchor="middle" dy="0em" style="font-family: 'Open Sans', verdana, arial, sans-serif; font-size: 17px; fill: rgb(68, 68, 68); opacity: 1; font-weight: normal; white-space: pre;">SAMPLE+PER_CLASS_100</text></g><g class="g-xtitle"/><g class="g-ytitle"/></g></svg>