<svg class="main-svg" xmlns="http://www.w3.org/2000/svg" xmlns:xlink="http://www.w3.org/1999/xlink" width="700" height="450" style="" viewBox="0 0 700 450"><rect x="0" y="0" width="700" height="450" style="fill: rgb(255, 255, 255); fill-opacity: 1;"/><defs id="defs-c3b442"><g class="clips"><clipPath id="clipc3b442xyplot" class="plotclip"><rect width="517" height="330"/></clipPath><clipPath class="axesclip" id="clipc3b442x"><rect x="60" y="0" width="517" height="450"/></clipPath><clipPath class="axesclip" id="clipc3b442y"><rect x="0" y="60" width="700" height="330"/></clipPath><clipPath class="axesclip" id="clipc3b442xy"><rect x="60" y="60" width="517" height="330"/></clipPath></g><g class="gradients"/></defs><g class="bglayer"/><g class="layer-below"><g class="imagelayer"/><g class="shapelayer"/></g><g class="cartesianlayer"><g class="subplot xy"><g class="layer-subplot"><g class="shapelayer"/><g class="imagelayer"/></g><g class="gridlayer"><g class="x"><path class="xgrid crisp" transform="translate(189.9,0)" d="M0,60v330" style="stroke: rgb(238, 238, 238); stroke-opacity: 1; stroke-width: 1px;"/><path class="xgrid crisp" transform="translate(319.8,0)" d="M0,60v330" style="stroke: rgb(238, 238, 238); stroke-opacity: 1; stroke-width: 1px;"/><path class="xgrid crisp" transform="translate(449.7,0)" d="M0,60v330" style="stroke: rgb(238, 238, 238); stroke-opacity: 1; stroke-width: 1px;"/></g><g class="y"><path class="ygrid crisp" transform="translate(0,320.23)" d="M60,0h517" style="stroke: rgb(238, 238, 238); stroke-opacity: 1; stroke-width: 1px;"/><path class="ygrid crisp" transform="translate(0,266.65999999999997)" d="M60,0h517" style="stroke: rgb(238, 238, 238); stroke-opacity: 1; stroke-width: 1px;"/><path class="ygrid crisp" transform="translate(0,213.09)" d="M60,0h517" style="stroke: rgb(238, 238, 238); stroke-opacity: 1; stroke-width: 1px;"/><path class="ygrid crisp" transform="translate(0,159.51999999999998)" d="M60,0h517" style="stroke: rgb(238, 238, 238); stroke-opacity: 1; stroke-width: 1px;"/><path class="ygrid crisp" transform="translate(0,105.95)" d="M60,0h517" style="stroke: rgb(238, 238, 238); stroke-opacity: 1; stroke-width: 1px;"/></g></g><g class="zerolinelayer"><path class="xzl zl crisp" transform="translate(60,0)" d="M0,60v330" style="stroke: rgb(68, 68, 68); stroke-opacity: 1; stroke-width: 1px;"/><path class="yzl zl crisp" transform="translate(0,373.8)" d="M60,0h517" style="stroke: rgb(68, 68, 68); stroke-opacity: 1; stroke-width: 1px;"/></g><path class="xlines-below"/><path class="ylines-below"/><g class="overlines-below"/><g class="xaxislayer-below"/><g class="yaxislayer-below"/><g class="overaxes-below"/><g class="plot" transform="translate(60, 60)" clip-path="url('#clipc3b442xyplot')"><g class="scatterlayer mlayer"><g class="trace scatter trace9174ea" style="stroke-miterlimit: 2; opacity: 1;"><g class="fills"/><g class="errorbars"/><g class="lines"><path class="js-line" d="M0,16.5L2.6,250.01L5.2,261.42L7.79,269.13L10.39,273.72L12.99,278.42L15.59,281.33L18.19,286.9L20.78,288.06L23.38,288.36L25.98,291.91L28.58,294.85L31.18,295.96L38.97,299.96L41.57,299.89L49.36,301.06L51.96,303.9L57.16,306.13L59.75,306.14L62.35,307.46L64.95,306.66L70.15,305.45L72.74,306.07L77.94,306.87L80.54,308.49L83.14,307.32L85.73,308.53L88.33,309.39L90.93,308.93L93.53,309.96L96.13,309.71L111.71,310.73L114.31,310.53L142.89,311.82L145.49,311.58L155.88,311.72L158.48,311.98L168.87,312.47L171.47,312.29L176.66,312.08L179.26,312.33L184.46,312.46L187.06,312.27L194.85,312.73L197.45,312.55L205.24,312.55L207.84,312.72L223.43,312.81L226.03,312.92L239.02,312.87L241.61,312.22L246.81,312.96L249.41,313.1L257.2,313L259.8,313.07L517,313.47" style="vector-effect: non-scaling-stroke; fill: none; stroke: rgb(31, 119, 180); stroke-opacity: 1; stroke-width: 2px; opacity: 1;"/></g><g class="points"/><g class="text"/></g><g class="trace scatter trace140120" style="stroke-miterlimit: 2; opacity: 1;"><g class="fills"/><g class="errorbars"/><g class="lines"><path class="js-line" d="M0,241.07L2.6,255.17L5.2,262.64L10.39,270.74L12.99,272.1L15.59,275.78L18.19,278.1L20.78,277.15L23.38,278.66L28.58,284.91L31.18,281.42L36.37,285.71L38.97,284.44L41.57,282.38L44.17,281.61L49.36,285.12L51.96,285.34L54.56,287.35L57.16,286.44L59.75,286.1L62.35,286.81L70.15,282.45L72.74,279.3L75.34,283.4L77.94,284.54L80.54,287.2L83.14,285.46L85.73,285.85L88.33,287.06L90.93,283.08L93.53,285.19L98.72,285.31L101.32,285.2L103.92,285.18L106.52,284.09L109.12,284.78L111.71,281.11L114.31,284.16L116.91,282.98L122.11,283.18L124.7,284.61L127.3,282.43L129.9,282.79L132.5,283.67L135.1,282.99L140.29,284.06L142.89,282.64L145.49,282.69L148.09,283.86L150.68,281.9L153.28,282.7L158.48,282.02L161.08,283.17L163.67,281.82L166.27,281.85L168.87,283.64L171.47,281.28L181.86,281.91L184.46,279.9L189.65,281.49L192.25,281.38L200.05,280.92L202.64,280.29L205.24,280.07L207.84,280.74L210.44,279.79L213.04,280.5L215.63,279.7L218.23,280.71L220.83,279.81L223.43,279.81L228.62,279.87L231.22,281.02L233.82,280.5L236.42,280.9L241.61,280.42L244.21,280.63L246.81,280.63L249.41,279.82L252.01,280.55L254.6,279.63L259.8,280.96L262.4,280.79L264.99,279.98L267.59,280.03L270.19,278.94L272.79,279.87L277.98,279.92L280.58,278.77L283.18,279.96L285.78,278.79L290.97,279.64L293.57,278.94L296.17,278.42L298.77,279.07L316.95,279.49L319.55,278.39L322.15,278.83L324.75,277.65L329.94,279.41L332.54,279.48L335.14,278.5L337.74,278.91L340.34,278.23L342.93,278.59L348.13,278.65L350.73,277.56L358.52,278.27L361.12,277.69L368.91,277.89L371.51,278.72L374.11,277.6L376.71,277.32L389.7,278.15L392.3,276.21L397.49,277.98L400.09,278.66L407.88,277.07L410.48,277.81L413.08,276.93L415.68,276.99L423.47,277.51L426.07,276.62L428.67,278.2L431.27,277L433.86,276.69L436.46,277.27L439.06,277.72L441.66,276.98L444.26,276.68L446.85,277.38L449.45,276L452.05,277.62L454.65,276.98L457.25,278.09L462.44,276.84L465.04,277.91L467.64,276.97L470.24,277.43L472.83,278.31L475.43,278.21L478.03,276.91L480.63,276.62L483.23,276.81L485.82,276.16L488.42,277.24L491.02,276.61L493.62,277.24L496.22,276.96L498.81,276.16L501.41,277.35L504.01,277.55L506.61,276.37L509.21,275.93L511.8,276.32L517,276.19" style="vector-effect: non-scaling-stroke; fill: none; stroke: rgb(255, 127, 14); stroke-opacity: 1; stroke-width: 2px; opacity: 1;"/></g><g class="points"/><g class="text"/></g><g class="trace scatter trace5e21d0" style="stroke-miterlimit: 2; opacity: 1;"><g class="fills"/><g class="errorbars"/><g class="lines"><path class="js-line" d="M0,309.36L2.6,306.41L5.2,304.67L10.39,301.83L12.99,300.97L18.19,298.52L20.78,299.75L25.98,298.1L28.58,296.7L31.18,297.7L33.77,296.95L36.37,296.34L38.97,296.79L46.76,296.75L49.36,296.32L57.16,295.54L59.75,295.7L64.95,295.72L67.55,295.74L72.74,296.61L75.34,295.72L88.33,294.77L90.93,295.67L96.13,294.99L98.72,294.98L109.12,294.79L111.71,295.66L114.31,294.72L116.91,294.84L122.11,295.07L124.7,294.59L127.3,295.13L129.9,294.88L140.29,294.52L142.89,294.64L155.88,294.71L158.48,294.73L168.87,294.38L171.47,294.76L202.64,294.51L205.24,294.67L218.23,294.44L220.83,294.5L368.91,294.33L371.51,294.3L517,294.29" style="vector-effect: non-scaling-stroke; fill: none; stroke: rgb(44, 160, 44); stroke-opacity: 1; stroke-width: 2px; opacity: 1;"/></g><g class="points"/><g class="text"/></g></g></g><g class="overplot"/><path class="xlines-above crisp" d="M0,0" style="fill: none;"/><path class="ylines-above crisp" d="M0,0" style="fill: none;"/><g class="overlines-above"/><g class="xaxislayer-above"><g class="xtick"><text text-anchor="middle" x="0" y="403" transform="translate(60,0)" style="font-family: 'Open Sans', verdana, arial, sans-serif; font-size: 12px; fill: rgb(68, 68, 68); fill-opacity: 1; white-space: pre;">0</text></g><g class="xtick"><text text-anchor="middle" x="0" y="403" transform="translate(189.9,0)" style="font-family: 'Open Sans', verdana, arial, sans-serif; font-size: 12px; fill: rgb(68, 68, 68); fill-opacity: 1; white-space: pre;">50</text></g><g class="xtick"><text text-anchor="middle" x="0" y="403" transform="translate(319.8,0)" style="font-family: 'Open Sans', verdana, arial, sans-serif; font-size: 12px; fill: rgb(68, 68, 68); fill-opacity: 1; white-space: pre;">100</text></g><g class="xtick"><text text-anchor="middle" x="0" y="403" transform="translate(449.7,0)" style="font-family: 'Open Sans', verdana, arial, sans-serif; font-size: 12px; fill: rgb(68, 68, 68); fill-opacity: 1; white-space: pre;">150</text></g></g><g class="yaxislayer-above"><g class="ytick"><text text-anchor="end" x="59" y="4.199999999999999" transform="translate(0,373.8)" style="font-family: 'Open Sans', verdana, arial, sans-serif; font-size: 12px; fill: rgb(68, 68, 68); fill-opacity: 1; white-space: pre;">0</text></g><g class="ytick"><text text-anchor="end" x="59" y="4.199999999999999" transform="translate(0,320.23)" style="font-family: 'Open Sans', verdana, arial, sans-serif; font-size: 12px; fill: rgb(68, 68, 68); fill-opacity: 1; white-space: pre;">2</text></g><g class="ytick"><text text-anchor="end" x="59" y="4.199999999999999" transform="translate(0,266.65999999999997)" style="font-family: 'Open Sans', verdana, arial, sans-serif; font-size: 12px; fill: rgb(68, 68, 68); fill-opacity: 1; white-space: pre;">4</text></g><g class="ytick"><text text-anchor="end" x="59" y="4.199999999999999" transform="translate(0,213.09)" style="font-family: 'Open Sans', verdana, arial, sans-serif; font-size: 12px; fill: rgb(68, 68, 68); fill-opacity: 1; white-space: pre;">6</text></g><g class="ytick"><text text-anchor="end" x="59" y="4.199999999999999" transform="translate(0,159.51999999999998)" style="font-family: 'Open Sans', verdana, arial, sans-serif; font-size: 12px; fill: rgb(68, 68, 68); fill-opacity: 1; white-space: pre;">8</text></g><g class="ytick"><text text-anchor="end" x="59" y="4.199999999999999" transform="translate(0,105.95)" style="font-family: 'Open Sans', verdana, arial, sans-serif; font-size: 12px; fill: rgb(68, 68, 68); fill-opacity: 1; white-space: pre;">10</text></g></g><g class="overaxes-above"/></g></g><g class="polarlayer"/><g class="ternarylayer"/><g class="geolayer"/><g class="funnelarealayer"/><g class="pielayer"/><g class="treemaplayer"/><g class="sunburstlayer"/><g class="glimages"/><defs id="topdefs-c3b442"><g class="clips"/><clipPath id="legendc3b442"><rect width="101" height="67" x="0" y="0"/></clipPath></defs><g class="layer-above"><g class="imagelayer"/><g class="shapelayer"/></g><g class="infolayer"><g class="legend" pointer-events="all" transform="translate(587.34, 60)"><rect class="bg" shape-rendering="crispEdges" width="101" height="67" x="0" y="0" style="stroke: rgb(68, 68, 68); stroke-opacity: 1; fill: rgb(255, 255, 255); fill-opacity: 1; stroke-width: 0px;"/><g class="scrollbox" transform="translate(0, 0)" clip-path="url('#legendc3b442')"><g class="groups"><g class="traces" transform="translate(0, 14.5)" style="opacity: 1;"><text class="legendtext" text-anchor="start" x="40" y="4.680000000000001" style="font-family: 'Open Sans', verdana, arial, sans-serif; font-size: 12px; fill: rgb(68, 68, 68); fill-opacity: 1; white-space: pre;">train loss</text><g class="layers" style="opacity: 1;"><g class="legendfill"/><g class="legendlines"><path class="js-line" d="M5,0h30" style="fill: none; stroke: rgb(31, 119, 180); stroke-opacity: 1; stroke-width: 2px;"/></g><g class="legendsymbols"><g class="legendpoints"/></g></g><rect class="legendtoggle" pointer-events="all" x="0" y="-9.5" width="95.78125" height="19" style="cursor: pointer; fill: rgb(0, 0, 0); fill-opacity: 0;"/></g><g class="traces" transform="translate(0, 33.5)" style="opacity: 1;"><text class="legendtext" text-anchor="start" x="40" y="4.680000000000001" style="font-family: 'Open Sans', verdana, arial, sans-serif; font-size: 12px; fill: rgb(68, 68, 68); fill-opacity: 1; white-space: pre;">test loss</text><g class="layers" style="opacity: 1;"><g class="legendfill"/><g class="legendlines"><path class="js-line" d="M5,0h30" style="fill: none; stroke: rgb(255, 127, 14); stroke-opacity: 1; stroke-width: 2px;"/></g><g class="legendsymbols"><g class="legendpoints"/></g></g><rect class="legendtoggle" pointer-events="all" x="0" y="-9.5" width="95.78125" height="19" style="cursor: pointer; fill: rgb(0, 0, 0); fill-opacity: 0;"/></g><g class="traces" transform="translate(0, 52.5)" style="opacity: 1;"><text class="legendtext" text-anchor="start" x="40" y="4.680000000000001" style="font-family: 'Open Sans', verdana, arial, sans-serif; font-size: 12px; fill: rgb(68, 68, 68); fill-opacity: 1; white-space: pre;">acc</text><g class="layers" style="opacity: 1;"><g class="legendfill"/><g class="legendlines"><path class="js-line" d="M5,0h30" style="fill: none; stroke: rgb(44, 160, 44); stroke-opacity: 1; stroke-width: 2px;"/></g><g class="legendsymbols"><g class="legendpoints"/></g></g><rect class="legendtoggle" pointer-events="all" x="0" y="-9.5" width="95.78125" height="19" style="cursor: pointer; fill: rgb(0, 0, 0); fill-opacity: 0;"/></g></g></g><rect class="scrollbar" rx="20" ry="3" width="0" height="0" x="0" y="0" style="fill: rgb(128, 139, 164); fill-opacity: 1;"/></g><g class="g-gtitle"><text class="gtitle" x="350" y="30" text-anchor="middle" dy="0em" style="font-family: 'Open Sans', verdana, arial, sans-serif; font-size: 17px; fill: rgb(68, 68, 68); opacity: 1; font-weight: normal; white-space: pre;">SAMPLE+PER_CLASS_10</text></g><g class="g-xtitle"/><g class="g-ytitle"/></g></svg>