<svg class="main-svg" xmlns="http://www.w3.org/2000/svg" xmlns:xlink="http://www.w3.org/1999/xlink" width="700" height="450" style="" viewBox="0 0 700 450"><rect x="0" y="0" width="700" height="450" style="fill: rgb(255, 255, 255); fill-opacity: 1;"/><defs id="defs-2351ed"><g class="clips"><clipPath id="clip2351edxyplot" class="plotclip"><rect width="517" height="330"/></clipPath><clipPath class="axesclip" id="clip2351edx"><rect x="60" y="0" width="517" height="450"/></clipPath><clipPath class="axesclip" id="clip2351edy"><rect x="0" y="60" width="700" height="330"/></clipPath><clipPath class="axesclip" id="clip2351edxy"><rect x="60" y="60" width="517" height="330"/></clipPath></g><g class="gradients"/></defs><g class="bglayer"/><g class="layer-below"><g class="imagelayer"/><g class="shapelayer"/></g><g class="cartesianlayer"><g class="subplot xy"><g class="layer-subplot"><g class="shapelayer"/><g class="imagelayer"/></g><g class="gridlayer"><g class="x"><path class="xgrid crisp" transform="translate(189.9,0)" d="M0,60v330" style="stroke: rgb(238, 238, 238); stroke-opacity: 1; stroke-width: 1px;"/><path class="xgrid crisp" transform="translate(319.8,0)" d="M0,60v330" style="stroke: rgb(238, 238, 238); stroke-opacity: 1; stroke-width: 1px;"/><path class="xgrid crisp" transform="translate(449.7,0)" d="M0,60v330" style="stroke: rgb(238, 238, 238); stroke-opacity: 1; stroke-width: 1px;"/></g><g class="y"><path class="ygrid crisp" transform="translate(0,334.75)" d="M60,0h517" style="stroke: rgb(238, 238, 238); stroke-opacity: 1; stroke-width: 1px;"/><path class="ygrid crisp" transform="translate(0,294.09000000000003)" d="M60,0h517" style="stroke: rgb(238, 238, 238); stroke-opacity: 1; stroke-width: 1px;"/><path class="ygrid crisp" transform="translate(0,253.43)" d="M60,0h517" style="stroke: rgb(238, 238, 238); stroke-opacity: 1; stroke-width: 1px;"/><path class="ygrid crisp" transform="translate(0,212.77)" d="M60,0h517" style="stroke: rgb(238, 238, 238); stroke-opacity: 1; stroke-width: 1px;"/><path class="ygrid crisp" transform="translate(0,172.11)" d="M60,0h517" style="stroke: rgb(238, 238, 238); stroke-opacity: 1; stroke-width: 1px;"/><path class="ygrid crisp" transform="translate(0,131.44)" d="M60,0h517" style="stroke: rgb(238, 238, 238); stroke-opacity: 1; stroke-width: 1px;"/><path class="ygrid crisp" transform="translate(0,90.78)" d="M60,0h517" style="stroke: rgb(238, 238, 238); stroke-opacity: 1; stroke-width: 1px;"/></g></g><g class="zerolinelayer"><path class="xzl zl crisp" transform="translate(60,0)" d="M0,60v330" style="stroke: rgb(68, 68, 68); stroke-opacity: 1; stroke-width: 1px;"/><path class="yzl zl crisp" transform="translate(0,375.41)" d="M60,0h517" style="stroke: rgb(68, 68, 68); stroke-opacity: 1; stroke-width: 1px;"/></g><path class="xlines-below"/><path class="ylines-below"/><g class="overlines-below"/><g class="xaxislayer-below"/><g class="yaxislayer-below"/><g class="overaxes-below"/><g class="plot" transform="translate(60, 60)" clip-path="url('#clip2351edxyplot')"><g class="scatterlayer mlayer"><g class="trace scatter traceb4d5d1" style="stroke-miterlimit: 2; opacity: 1;"><g class="fills"/><g class="errorbars"/><g class="lines"><path class="js-line" d="M0,16.5L2.6,217.5L5.2,241.65L7.79,255.08L10.39,260.79L12.99,268.8L15.59,270.93L18.19,274L20.78,278.69L23.38,278.49L25.98,285.11L28.58,285.33L31.18,287.61L36.37,287.5L38.97,289.15L41.57,290.88L44.17,291.03L46.76,289.89L49.36,291.62L54.56,297.86L57.16,297.5L62.35,297L64.95,297.26L70.15,298.91L72.74,297.85L75.34,297.2L77.94,300.82L83.14,302.86L85.73,301.75L90.93,301.53L93.53,300.45L96.13,302.79L98.72,303.21L101.32,301.36L103.92,304.84L109.12,304.23L111.71,305.92L114.31,305.85L116.91,304.67L119.51,305.63L122.11,305.17L137.69,307.44L140.29,307.77L145.49,307.66L148.09,307.86L153.28,305.84L155.88,308.57L166.27,308.91L168.87,308.96L174.07,309.29L176.66,309.81L181.86,309.86L184.46,309.82L187.06,310.34L189.65,309.57L192.25,309.22L194.85,310.16L205.24,309.82L207.84,310.52L213.04,310.82L215.63,311.04L231.22,311.06L233.82,311.21L241.61,311.85L244.21,311.51L252.01,310.8L254.6,311.5L267.59,311.95L270.19,311.57L272.79,312.18L275.39,311.77L285.78,312.37L288.38,312.31L301.37,312.27L303.96,312.3L309.16,312.22L311.76,312.67L322.15,312.55L324.75,312.55L517,313.4" style="vector-effect: non-scaling-stroke; fill: none; stroke: rgb(31, 119, 180); stroke-opacity: 1; stroke-width: 2px; opacity: 1;"/></g><g class="points"/><g class="text"/></g><g class="trace scatter trace7908c6" style="stroke-miterlimit: 2; opacity: 1;"><g class="fills"/><g class="errorbars"/><g class="lines"><path class="js-line" d="M0,183.26L2.6,236.17L5.2,231.03L10.39,249.46L12.99,257.31L15.59,258.64L18.19,261.17L20.78,253.8L23.38,257.01L25.98,266.1L28.58,267.21L31.18,262.64L33.77,268.61L36.37,266.98L38.97,264.45L44.17,272.2L46.76,265.2L49.36,266.32L51.96,275L54.56,276.21L57.16,265.87L59.75,276.07L62.35,268.3L64.95,273.9L67.55,275.16L70.15,272.1L72.74,270.8L75.34,272.59L77.94,273.08L80.54,276.91L83.14,273.56L85.73,273.63L88.33,275.61L90.93,270.18L93.53,273.87L96.13,275.87L98.72,273.94L101.32,272.44L103.92,276.67L106.52,272.93L109.12,274.17L114.31,276.4L116.91,275.39L119.51,278.55L122.11,273.57L124.7,276.02L127.3,274.62L129.9,277.59L132.5,276.06L137.69,276.86L140.29,275.23L142.89,277.44L145.49,274.1L148.09,274.14L150.68,273.29L153.28,273.82L155.88,275.32L158.48,274.94L161.08,276.74L163.67,272.36L166.27,274.14L168.87,273.35L171.47,276.59L174.07,275.66L176.66,275.78L179.26,274.63L181.86,274.55L187.06,276.11L189.65,272.47L192.25,274.23L194.85,273.66L197.45,273.14L200.05,274.07L202.64,272.29L205.24,273.03L207.84,275.82L210.44,275.27L220.83,274.36L223.43,271.86L226.03,268.89L228.62,271.93L233.82,274.13L236.42,273.04L239.02,272.31L241.61,273.3L246.81,272.07L249.41,274.23L254.6,272.23L257.2,273.09L259.8,273.33L262.4,269.67L264.99,271.42L267.59,271.56L270.19,271.83L272.79,270.8L277.98,272.52L280.58,272.41L283.18,271.36L285.78,271.17L293.57,270.35L296.17,270.79L298.77,271.03L301.37,269.11L303.96,270.27L306.56,269.71L309.16,270.56L311.76,269.33L314.36,270.37L316.95,269.1L319.55,268.85L322.15,270.72L327.35,269.31L329.94,269.53L332.54,271.06L335.14,269.83L337.74,269.56L340.34,270.19L342.93,270.05L345.53,269.08L348.13,268.22L350.73,269.67L353.33,269.61L355.92,268.48L358.52,268.29L361.12,269.5L363.72,268.4L366.32,269L368.91,269.14L371.51,268.06L376.71,267.97L379.31,268.73L387.1,267.8L389.7,267.93L394.89,267.12L397.49,267.84L400.09,266.95L402.69,267.25L407.88,266.78L410.48,267.47L413.08,267.5L415.68,266.35L418.28,267.43L420.87,266.84L426.07,267.57L428.67,266.56L431.27,268.73L433.86,267.73L441.66,266.54L444.26,267.35L457.25,267.26L459.84,267.5L462.44,265.56L465.04,266.39L475.43,267.2L478.03,266.25L480.63,265.6L483.23,266.19L488.42,267.33L491.02,264.92L493.62,264.95L496.22,267.12L498.81,265.98L501.41,266.08L517,266.04" style="vector-effect: non-scaling-stroke; fill: none; stroke: rgb(255, 127, 14); stroke-opacity: 1; stroke-width: 2px; opacity: 1;"/></g><g class="points"/><g class="text"/></g><g class="trace scatter trace15b9d6" style="stroke-miterlimit: 2; opacity: 1;"><g class="fills"/><g class="errorbars"/><g class="lines"><path class="js-line" d="M0,277.48L2.6,263.79L5.2,263.82L7.79,262.88L10.39,258.73L15.59,255.94L18.19,255.13L20.78,258.38L23.38,256.23L25.98,253.57L28.58,253.15L31.18,253.74L33.77,252.59L38.97,253.75L41.57,251.97L44.17,251.18L46.76,253.38L49.36,252.55L51.96,250.46L54.56,250.17L57.16,252.12L59.75,249.64L62.35,251.92L64.95,250.18L67.55,249.94L72.74,251.19L75.34,250.72L80.54,248.9L83.14,250.1L88.33,249.47L90.93,251.12L93.53,249.42L96.13,249.24L98.72,249.05L101.32,249.79L103.92,248.81L106.52,249.39L111.71,248.76L114.31,248.45L116.91,248.57L119.51,247.8L122.11,248.97L124.7,248.41L127.3,248.7L129.9,247.97L137.69,247.55L140.29,248.55L142.89,247.42L145.49,248.35L150.68,248.77L153.28,248.04L161.08,247.28L163.67,248.08L171.47,247.26L174.07,247.33L187.06,246.78L189.65,248.27L192.25,247.2L194.85,247.42L205.24,247.43L207.84,246.62L223.43,247.46L226.03,248.15L228.62,247.16L231.22,247.13L236.42,246.73L239.02,246.96L241.61,246.61L244.21,247.08L252.01,246.6L254.6,246.89L259.8,246.56L262.4,247.13L267.59,246.8L270.19,246.84L288.38,246.66L290.97,246.78L316.95,246.7L319.55,246.92L324.75,246.57L327.35,246.72L340.34,246.35L342.93,246.41L355.92,246.44L358.52,246.38L381.9,246.46L384.5,246.29L462.44,246.44L465.04,246.32L517,246.34" style="vector-effect: non-scaling-stroke; fill: none; stroke: rgb(44, 160, 44); stroke-opacity: 1; stroke-width: 2px; opacity: 1;"/></g><g class="points"/><g class="text"/></g></g></g><g class="overplot"/><path class="xlines-above crisp" d="M0,0" style="fill: none;"/><path class="ylines-above crisp" d="M0,0" style="fill: none;"/><g class="overlines-above"/><g class="xaxislayer-above"><g class="xtick"><text text-anchor="middle" x="0" y="403" transform="translate(60,0)" style="font-family: 'Open Sans', verdana, arial, sans-serif; font-size: 12px; fill: rgb(68, 68, 68); fill-opacity: 1; white-space: pre;">0</text></g><g class="xtick"><text text-anchor="middle" x="0" y="403" transform="translate(189.9,0)" style="font-family: 'Open Sans', verdana, arial, sans-serif; font-size: 12px; fill: rgb(68, 68, 68); fill-opacity: 1; white-space: pre;">50</text></g><g class="xtick"><text text-anchor="middle" x="0" y="403" transform="translate(319.8,0)" style="font-family: 'Open Sans', verdana, arial, sans-serif; font-size: 12px; fill: rgb(68, 68, 68); fill-opacity: 1; white-space: pre;">100</text></g><g class="xtick"><text text-anchor="middle" x="0" y="403" transform="translate(449.7,0)" style="font-family: 'Open Sans', verdana, arial, sans-serif; font-size: 12px; fill: rgb(68, 68, 68); fill-opacity: 1; white-space: pre;">150</text></g></g><g class="yaxislayer-above"><g class="ytick"><text text-anchor="end" x="59" y="4.199999999999999" transform="translate(0,375.41)" style="font-family: 'Open Sans', verdana, arial, sans-serif; font-size: 12px; fill: rgb(68, 68, 68); fill-opacity: 1; white-space: pre;">0</text></g><g class="ytick"><text text-anchor="end" x="59" y="4.199999999999999" transform="translate(0,334.75)" style="font-family: 'Open Sans', verdana, arial, sans-serif; font-size: 12px; fill: rgb(68, 68, 68); fill-opacity: 1; white-space: pre;">0.5</text></g><g class="ytick"><text text-anchor="end" x="59" y="4.199999999999999" transform="translate(0,294.09000000000003)" style="font-family: 'Open Sans', verdana, arial, sans-serif; font-size: 12px; fill: rgb(68, 68, 68); fill-opacity: 1; white-space: pre;">1</text></g><g class="ytick"><text text-anchor="end" x="59" y="4.199999999999999" transform="translate(0,253.43)" style="font-family: 'Open Sans', verdana, arial, sans-serif; font-size: 12px; fill: rgb(68, 68, 68); fill-opacity: 1; white-space: pre;">1.5</text></g><g class="ytick"><text text-anchor="end" x="59" y="4.199999999999999" transform="translate(0,212.77)" style="font-family: 'Open Sans', verdana, arial, sans-serif; font-size: 12px; fill: rgb(68, 68, 68); fill-opacity: 1; white-space: pre;">2</text></g><g class="ytick"><text text-anchor="end" x="59" y="4.199999999999999" transform="translate(0,172.11)" style="font-family: 'Open Sans', verdana, arial, sans-serif; font-size: 12px; fill: rgb(68, 68, 68); fill-opacity: 1; white-space: pre;">2.5</text></g><g class="ytick"><text text-anchor="end" x="59" y="4.199999999999999" transform="translate(0,131.44)" style="font-family: 'Open Sans', verdana, arial, sans-serif; font-size: 12px; fill: rgb(68, 68, 68); fill-opacity: 1; white-space: pre;">3</text></g><g class="ytick"><text text-anchor="end" x="59" y="4.199999999999999" transform="translate(0,90.78)" style="font-family: 'Open Sans', verdana, arial, sans-serif; font-size: 12px; fill: rgb(68, 68, 68); fill-opacity: 1; white-space: pre;">3.5</text></g></g><g class="overaxes-above"/></g></g><g class="polarlayer"/><g class="ternarylayer"/><g class="geolayer"/><g class="funnelarealayer"/><g class="pielayer"/><g class="treemaplayer"/><g class="sunburstlayer"/><g class="glimages"/><defs id="topdefs-2351ed"><g class="clips"/><clipPath id="legend2351ed"><rect width="101" height="67" x="0" y="0"/></clipPath></defs><g class="layer-above"><g class="imagelayer"/><g class="shapelayer"/></g><g class="infolayer"><g class="legend" pointer-events="all" transform="translate(587.34, 60)"><rect class="bg" shape-rendering="crispEdges" width="101" height="67" x="0" y="0" style="stroke: rgb(68, 68, 68); stroke-opacity: 1; fill: rgb(255, 255, 255); fill-opacity: 1; stroke-width: 0px;"/><g class="scrollbox" transform="translate(0, 0)" clip-path="url('#legend2351ed')"><g class="groups"><g class="traces" transform="translate(0, 14.5)" style="opacity: 1;"><text class="legendtext" text-anchor="start" x="40" y="4.680000000000001" style="font-family: 'Open Sans', verdana, arial, sans-serif; font-size: 12px; fill: rgb(68, 68, 68); fill-opacity: 1; white-space: pre;">train loss</text><g class="layers" style="opacity: 1;"><g class="legendfill"/><g class="legendlines"><path class="js-line" d="M5,0h30" style="fill: none; stroke: rgb(31, 119, 180); stroke-opacity: 1; stroke-width: 2px;"/></g><g class="legendsymbols"><g class="legendpoints"/></g></g><rect class="legendtoggle" pointer-events="all" x="0" y="-9.5" width="95.78125" height="19" style="cursor: pointer; fill: rgb(0, 0, 0); fill-opacity: 0;"/></g><g class="traces" transform="translate(0, 33.5)" style="opacity: 1;"><text class="legendtext" text-anchor="start" x="40" y="4.680000000000001" style="font-family: 'Open Sans', verdana, arial, sans-serif; font-size: 12px; fill: rgb(68, 68, 68); fill-opacity: 1; white-space: pre;">test loss</text><g class="layers" style="opacity: 1;"><g class="legendfill"/><g class="legendlines"><path class="js-line" d="M5,0h30" style="fill: none; stroke: rgb(255, 127, 14); stroke-opacity: 1; stroke-width: 2px;"/></g><g class="legendsymbols"><g class="legendpoints"/></g></g><rect class="legendtoggle" pointer-events="all" x="0" y="-9.5" width="95.78125" height="19" style="cursor: pointer; fill: rgb(0, 0, 0); fill-opacity: 0;"/></g><g class="traces" transform="translate(0, 52.5)" style="opacity: 1;"><text class="legendtext" text-anchor="start" x="40" y="4.680000000000001" style="font-family: 'Open Sans', verdana, arial, sans-serif; font-size: 12px; fill: rgb(68, 68, 68); fill-opacity: 1; white-space: pre;">acc</text><g class="layers" style="opacity: 1;"><g class="legendfill"/><g class="legendlines"><path class="js-line" d="M5,0h30" style="fill: none; stroke: rgb(44, 160, 44); stroke-opacity: 1; stroke-width: 2px;"/></g><g class="legendsymbols"><g class="legendpoints"/></g></g><rect class="legendtoggle" pointer-events="all" x="0" y="-9.5" width="95.78125" height="19" style="cursor: pointer; fill: rgb(0, 0, 0); fill-opacity: 0;"/></g></g></g><rect class="scrollbar" rx="20" ry="3" width="0" height="0" x="0" y="0" style="fill: rgb(128, 139, 164); fill-opacity: 1;"/></g><g class="g-gtitle"><text class="gtitle" x="350" y="30" text-anchor="middle" dy="0em" style="font-family: 'Open Sans', verdana, arial, sans-serif; font-size: 17px; fill: rgb(68, 68, 68); opacity: 1; font-weight: normal; white-space: pre;">SAMPLE+PER_CLASS_50</text></g><g class="g-xtitle"/><g class="g-ytitle"/></g></svg>