<svg class="main-svg" xmlns="http://www.w3.org/2000/svg" xmlns:xlink="http://www.w3.org/1999/xlink" width="700" height="450" style="" viewBox="0 0 700 450"><rect x="0" y="0" width="700" height="450" style="fill: rgb(255, 255, 255); fill-opacity: 1;"/><defs id="defs-db20d0"><g class="clips"><clipPath id="clipdb20d0xyplot" class="plotclip"><rect width="517" height="330"/></clipPath><clipPath class="axesclip" id="clipdb20d0x"><rect x="60" y="0" width="517" height="450"/></clipPath><clipPath class="axesclip" id="clipdb20d0y"><rect x="0" y="60" width="700" height="330"/></clipPath><clipPath class="axesclip" id="clipdb20d0xy"><rect x="60" y="60" width="517" height="330"/></clipPath></g><g class="gradients"/></defs><g class="bglayer"/><g class="layer-below"><g class="imagelayer"/><g class="shapelayer"/></g><g class="cartesianlayer"><g class="subplot xy"><g class="layer-subplot"><g class="shapelayer"/><g class="imagelayer"/></g><g class="gridlayer"><g class="x"><path class="xgrid crisp" transform="translate(189.9,0)" d="M0,60v330" style="stroke: rgb(238, 238, 238); stroke-opacity: 1; stroke-width: 1px;"/><path class="xgrid crisp" transform="translate(319.8,0)" d="M0,60v330" style="stroke: rgb(238, 238, 238); stroke-opacity: 1; stroke-width: 1px;"/><path class="xgrid crisp" transform="translate(449.7,0)" d="M0,60v330" style="stroke: rgb(238, 238, 238); stroke-opacity: 1; stroke-width: 1px;"/></g><g class="y"><path class="ygrid crisp" transform="translate(0,315.38)" d="M60,0h517" style="stroke: rgb(238, 238, 238); stroke-opacity: 1; stroke-width: 1px;"/><path class="ygrid crisp" transform="translate(0,252.66)" d="M60,0h517" style="stroke: rgb(238, 238, 238); stroke-opacity: 1; stroke-width: 1px;"/><path class="ygrid crisp" transform="translate(0,189.94)" d="M60,0h517" style="stroke: rgb(238, 238, 238); stroke-opacity: 1; stroke-width: 1px;"/><path class="ygrid crisp" transform="translate(0,127.21)" d="M60,0h517" style="stroke: rgb(238, 238, 238); stroke-opacity: 1; stroke-width: 1px;"/><path class="ygrid crisp" transform="translate(0,64.49)" d="M60,0h517" style="stroke: rgb(238, 238, 238); stroke-opacity: 1; stroke-width: 1px;"/></g></g><g class="zerolinelayer"><path class="xzl zl crisp" transform="translate(60,0)" d="M0,60v330" style="stroke: rgb(68, 68, 68); stroke-opacity: 1; stroke-width: 1px;"/><path class="yzl zl crisp" transform="translate(0,378.1)" d="M60,0h517" style="stroke: rgb(68, 68, 68); stroke-opacity: 1; stroke-width: 1px;"/></g><path class="xlines-below"/><path class="ylines-below"/><g class="overlines-below"/><g class="xaxislayer-below"/><g class="yaxislayer-below"/><g class="overaxes-below"/><g class="plot" transform="translate(60, 60)" clip-path="url('#clipdb20d0xyplot')"><g class="scatterlayer mlayer"><g class="trace scatter trace404123" style="stroke-miterlimit: 2; opacity: 1;"><g class="fills"/><g class="errorbars"/><g class="lines"><path class="js-line" d="M0,16.5L2.6,214.86L5.2,237.37L7.79,248.76L10.39,256L12.99,260.57L15.59,266.94L18.19,266.93L20.78,271.22L23.38,272.81L25.98,281.23L28.58,279.37L31.18,281.09L33.77,281.92L36.37,284.04L41.57,285.17L44.17,286.88L49.36,286.88L51.96,291.81L54.56,293.83L57.16,293.98L59.75,293.92L62.35,295.98L64.95,294.17L67.55,295.3L75.34,295.81L77.94,299.92L85.73,299.35L88.33,300.33L96.13,301.12L98.72,300.19L106.52,304.03L109.12,303.94L116.91,303.3L119.51,304.39L122.11,304.17L124.7,302.41L127.3,304.79L129.9,305.44L132.5,306.44L135.1,306.6L137.69,305.56L140.29,306.86L142.89,307.15L145.49,306.42L148.09,305.58L150.68,305.81L158.48,308.19L161.08,308.07L168.87,307.89L171.47,308.27L174.07,307.37L176.66,307.66L181.86,309.02L184.46,308.82L187.06,309.19L189.65,308.8L192.25,308.41L194.85,309.31L202.64,309.51L205.24,308.54L210.44,310.44L213.04,309.91L218.23,309.95L220.83,310.11L231.22,310.13L233.82,310.79L262.4,311.18L264.99,311.51L298.77,311.74L301.37,311.91L309.16,311.86L311.76,312.32L332.54,312.11L335.14,312.24L342.93,312.36L345.53,312.39L355.92,312.48L358.52,312.67L363.72,312.28L366.32,312.72L376.71,312.64L379.31,312.88L394.89,312.84L397.49,312.84L407.88,312.88L410.48,312.81L420.87,313.07L423.47,312.65L428.67,313.03L431.27,312.97L439.06,313.06L441.66,313.29L483.23,313.31L485.82,313.39L517,313.47" style="vector-effect: non-scaling-stroke; fill: none; stroke: rgb(31, 119, 180); stroke-opacity: 1; stroke-width: 2px; opacity: 1;"/></g><g class="points"/><g class="text"/></g><g class="trace scatter trace6d9c83" style="stroke-miterlimit: 2; opacity: 1;"><g class="fills"/><g class="errorbars"/><g class="lines"><path class="js-line" d="M0,178.87L2.6,217.66L5.2,225.97L7.79,227.62L10.39,224.78L12.99,246.87L15.59,250.7L18.19,245.13L20.78,248.97L23.38,249.68L25.98,258.1L28.58,256.98L31.18,259.01L33.77,253.75L36.37,259.35L41.57,259.55L44.17,260.84L46.76,265.82L49.36,262.29L51.96,263.77L54.56,263.73L57.16,262.55L59.75,267.13L62.35,264.87L64.95,269.4L67.55,265.15L70.15,266.67L72.74,270.1L75.34,266.16L77.94,273.55L80.54,270.72L83.14,275.32L85.73,275.13L88.33,271.76L90.93,271.17L93.53,272.74L96.13,269.82L98.72,273.88L101.32,272.14L103.92,270.22L106.52,270.73L109.12,274.26L111.71,273.64L114.31,268.59L116.91,272.78L119.51,268.96L122.11,273.01L124.7,265.12L127.3,271.14L129.9,272.74L132.5,271.44L135.1,275.75L137.69,275.8L140.29,273.72L142.89,270.59L145.49,272.49L148.09,271.71L150.68,274.04L153.28,272.52L158.48,274.1L161.08,273.02L163.67,273.92L166.27,271.33L168.87,273.93L171.47,272.8L174.07,273.18L176.66,271.31L179.26,272.51L181.86,274.93L184.46,272.48L187.06,274.63L194.85,274.76L197.45,274.83L200.05,268.15L202.64,270.29L205.24,274.12L207.84,272.87L210.44,270.76L213.04,272.32L215.63,273.55L218.23,270.81L220.83,273.86L223.43,272.7L226.03,274L228.62,272.86L233.82,272.45L236.42,273.55L239.02,269.51L241.61,271.38L244.21,266.11L246.81,272.4L249.41,271.2L252.01,271.44L254.6,270.38L257.2,272.48L259.8,273.23L262.4,272.16L264.99,273.47L267.59,272.46L275.39,270.13L277.98,272.5L283.18,271.71L285.78,273.37L288.38,270.67L290.97,270.93L293.57,272.29L296.17,272.22L298.77,270.31L301.37,271.45L303.96,273.2L306.56,270.2L309.16,270.69L311.76,269.73L316.95,271.43L319.55,269.93L322.15,271.28L324.75,270.24L327.35,270.31L329.94,272.12L335.14,272.1L337.74,271.86L340.34,270.99L342.93,271.99L348.13,270.71L350.73,270.69L358.52,270.51L361.12,269.33L363.72,271.42L366.32,270.95L368.91,269.49L371.51,270.4L374.11,271.15L376.71,270.31L379.31,270.94L381.9,270.36L384.5,269.47L387.1,270.74L389.7,270.08L392.3,270.31L394.89,270.83L397.49,270.41L405.29,270.12L407.88,270.77L413.08,269.95L415.68,270.48L420.87,270.43L423.47,269.36L428.67,269.34L431.27,269.59L433.86,270.03L436.46,269.69L446.85,269.38L449.45,268.76L457.25,269.96L459.84,268.69L462.44,269.93L465.04,269.56L467.64,269.85L470.24,269.22L472.83,268.73L475.43,269.42L491.02,268.51L493.62,269.72L498.81,269.48L501.41,269.72L504.01,268.76L506.61,268.96L511.8,268.28L514.4,268.85L517,269.38" style="vector-effect: non-scaling-stroke; fill: none; stroke: rgb(255, 127, 14); stroke-opacity: 1; stroke-width: 2px; opacity: 1;"/></g><g class="points"/><g class="text"/></g><g class="trace scatter trace15c796" style="stroke-miterlimit: 2; opacity: 1;"><g class="fills"/><g class="errorbars"/><g class="lines"><path class="js-line" d="M0,244.07L2.6,232.25L5.2,227.77L7.79,227.93L10.39,226.63L12.99,222.95L15.59,221.5L18.19,221.86L20.78,219.81L23.38,222.08L25.98,217.4L28.58,219.24L31.18,217.86L33.77,218.61L36.37,218.05L44.17,216.43L46.76,214.94L49.36,215.86L51.96,214.84L54.56,215.81L57.16,215.36L59.75,214.48L62.35,214.45L64.95,213.91L67.55,214.7L70.15,214.99L72.74,213.08L75.34,213.77L77.94,211.63L80.54,212.62L83.14,211.17L85.73,210.84L88.33,212.1L90.93,212.53L93.53,211.53L96.13,212.72L98.72,210.96L103.92,212.19L106.52,212.37L109.12,210.62L111.71,211.06L114.31,212.02L116.91,211.36L119.51,212.26L122.11,211.25L124.7,212.45L127.3,211.25L132.5,210.78L135.1,209.9L140.29,210.3L142.89,211.09L145.49,210.2L148.09,210.73L150.68,210.12L153.28,210.89L155.88,210.01L158.48,209.94L161.08,210.36L163.67,209.93L166.27,210.32L168.87,209.86L174.07,209.59L176.66,210.84L179.26,210.3L181.86,208.93L184.46,210.19L187.06,209.21L197.45,208.63L200.05,210.89L205.24,209.13L207.84,209.39L213.04,209.38L215.63,208.79L218.23,210.06L220.83,209.23L236.42,208.66L239.02,209.5L241.61,209.26L244.21,210.1L246.81,208.88L249.41,209.05L252.01,208.82L254.6,209.55L257.2,208.52L259.8,208.36L270.19,208.76L272.79,208.66L275.39,209.02L277.98,208.25L283.18,208.73L285.78,207.99L288.38,208.87L290.97,208.86L296.17,208.3L298.77,208.78L303.96,207.94L306.56,208.8L309.16,208.46L311.76,209.12L316.95,208.25L319.55,208.63L324.75,208.39L327.35,208.64L332.54,207.93L335.14,207.93L350.73,207.97L353.33,208.27L358.52,208.27L361.12,208.67L363.72,207.88L366.32,208.02L371.51,208.27L374.11,207.86L384.5,208.4L387.1,207.88L400.09,208.12L402.69,208.09L415.68,207.94L418.28,208.13L423.47,208.06L426.07,208.21L433.86,207.84L436.46,208.01L475.43,207.86L478.03,207.79L491.02,208.17L493.62,207.89L517,207.9" style="vector-effect: non-scaling-stroke; fill: none; stroke: rgb(44, 160, 44); stroke-opacity: 1; stroke-width: 2px; opacity: 1;"/></g><g class="points"/><g class="text"/></g></g></g><g class="overplot"/><path class="xlines-above crisp" d="M0,0" style="fill: none;"/><path class="ylines-above crisp" d="M0,0" style="fill: none;"/><g class="overlines-above"/><g class="xaxislayer-above"><g class="xtick"><text text-anchor="middle" x="0" y="403" transform="translate(60,0)" style="font-family: 'Open Sans', verdana, arial, sans-serif; font-size: 12px; fill: rgb(68, 68, 68); fill-opacity: 1; white-space: pre;">0</text></g><g class="xtick"><text text-anchor="middle" x="0" y="403" transform="translate(189.9,0)" style="font-family: 'Open Sans', verdana, arial, sans-serif; font-size: 12px; fill: rgb(68, 68, 68); fill-opacity: 1; white-space: pre;">50</text></g><g class="xtick"><text text-anchor="middle" x="0" y="403" transform="translate(319.8,0)" style="font-family: 'Open Sans', verdana, arial, sans-serif; font-size: 12px; fill: rgb(68, 68, 68); fill-opacity: 1; white-space: pre;">100</text></g><g class="xtick"><text text-anchor="middle" x="0" y="403" transform="translate(449.7,0)" style="font-family: 'Open Sans', verdana, arial, sans-serif; font-size: 12px; fill: rgb(68, 68, 68); fill-opacity: 1; white-space: pre;">150</text></g></g><g class="yaxislayer-above"><g class="ytick"><text text-anchor="end" x="59" y="4.199999999999999" transform="translate(0,378.1)" style="font-family: 'Open Sans', verdana, arial, sans-serif; font-size: 12px; fill: rgb(68, 68, 68); fill-opacity: 1; white-space: pre;">0</text></g><g class="ytick"><text text-anchor="end" x="59" y="4.199999999999999" transform="translate(0,315.38)" style="font-family: 'Open Sans', verdana, arial, sans-serif; font-size: 12px; fill: rgb(68, 68, 68); fill-opacity: 1; white-space: pre;">0.5</text></g><g class="ytick"><text text-anchor="end" x="59" y="4.199999999999999" transform="translate(0,252.66)" style="font-family: 'Open Sans', verdana, arial, sans-serif; font-size: 12px; fill: rgb(68, 68, 68); fill-opacity: 1; white-space: pre;">1</text></g><g class="ytick"><text text-anchor="end" x="59" y="4.199999999999999" transform="translate(0,189.94)" style="font-family: 'Open Sans', verdana, arial, sans-serif; font-size: 12px; fill: rgb(68, 68, 68); fill-opacity: 1; white-space: pre;">1.5</text></g><g class="ytick"><text text-anchor="end" x="59" y="4.199999999999999" transform="translate(0,127.21)" style="font-family: 'Open Sans', verdana, arial, sans-serif; font-size: 12px; fill: rgb(68, 68, 68); fill-opacity: 1; white-space: pre;">2</text></g><g class="ytick"><text text-anchor="end" x="59" y="4.199999999999999" transform="translate(0,64.49)" style="font-family: 'Open Sans', verdana, arial, sans-serif; font-size: 12px; fill: rgb(68, 68, 68); fill-opacity: 1; white-space: pre;">2.5</text></g></g><g class="overaxes-above"/></g></g><g class="polarlayer"/><g class="ternarylayer"/><g class="geolayer"/><g class="funnelarealayer"/><g class="pielayer"/><g class="treemaplayer"/><g class="sunburstlayer"/><g class="glimages"/><defs id="topdefs-db20d0"><g class="clips"/><clipPath id="legenddb20d0"><rect width="101" height="67" x="0" y="0"/></clipPath></defs><g class="layer-above"><g class="imagelayer"/><g class="shapelayer"/></g><g class="infolayer"><g class="legend" pointer-events="all" transform="translate(587.34, 60)"><rect class="bg" shape-rendering="crispEdges" width="101" height="67" x="0" y="0" style="stroke: rgb(68, 68, 68); stroke-opacity: 1; fill: rgb(255, 255, 255); fill-opacity: 1; stroke-width: 0px;"/><g class="scrollbox" transform="translate(0, 0)" clip-path="url('#legenddb20d0')"><g class="groups"><g class="traces" transform="translate(0, 14.5)" style="opacity: 1;"><text class="legendtext" text-anchor="start" x="40" y="4.680000000000001" style="font-family: 'Open Sans', verdana, arial, sans-serif; font-size: 12px; fill: rgb(68, 68, 68); fill-opacity: 1; white-space: pre;">train loss</text><g class="layers" style="opacity: 1;"><g class="legendfill"/><g class="legendlines"><path class="js-line" d="M5,0h30" style="fill: none; stroke: rgb(31, 119, 180); stroke-opacity: 1; stroke-width: 2px;"/></g><g class="legendsymbols"><g class="legendpoints"/></g></g><rect class="legendtoggle" pointer-events="all" x="0" y="-9.5" width="95.78125" height="19" style="cursor: pointer; fill: rgb(0, 0, 0); fill-opacity: 0;"/></g><g class="traces" transform="translate(0, 33.5)" style="opacity: 1;"><text class="legendtext" text-anchor="start" x="40" y="4.680000000000001" style="font-family: 'Open Sans', verdana, arial, sans-serif; font-size: 12px; fill: rgb(68, 68, 68); fill-opacity: 1; white-space: pre;">test loss</text><g class="layers" style="opacity: 1;"><g class="legendfill"/><g class="legendlines"><path class="js-line" d="M5,0h30" style="fill: none; stroke: rgb(255, 127, 14); stroke-opacity: 1; stroke-width: 2px;"/></g><g class="legendsymbols"><g class="legendpoints"/></g></g><rect class="legendtoggle" pointer-events="all" x="0" y="-9.5" width="95.78125" height="19" style="cursor: pointer; fill: rgb(0, 0, 0); fill-opacity: 0;"/></g><g class="traces" transform="translate(0, 52.5)" style="opacity: 1;"><text class="legendtext" text-anchor="start" x="40" y="4.680000000000001" style="font-family: 'Open Sans', verdana, arial, sans-serif; font-size: 12px; fill: rgb(68, 68, 68); fill-opacity: 1; white-space: pre;">acc</text><g class="layers" style="opacity: 1;"><g class="legendfill"/><g class="legendlines"><path class="js-line" d="M5,0h30" style="fill: none; stroke: rgb(44, 160, 44); stroke-opacity: 1; stroke-width: 2px;"/></g><g class="legendsymbols"><g class="legendpoints"/></g></g><rect class="legendtoggle" pointer-events="all" x="0" y="-9.5" width="95.78125" height="19" style="cursor: pointer; fill: rgb(0, 0, 0); fill-opacity: 0;"/></g></g></g><rect class="scrollbar" rx="20" ry="3" width="0" height="0" x="0" y="0" style="fill: rgb(128, 139, 164); fill-opacity: 1;"/></g><g class="g-gtitle"><text class="gtitle" x="350" y="30" text-anchor="middle" dy="0em" style="font-family: 'Open Sans', verdana, arial, sans-serif; font-size: 17px; fill: rgb(68, 68, 68); opacity: 1; font-weight: normal; white-space: pre;">SAMPLE+PER_CLASS_100</text></g><g class="g-xtitle"/><g class="g-ytitle"/></g></svg>